STARTFONT 2.1
COMMENT
COMMENT Converted from OpenType font "CourierPrime-Bold.ttf" by "otf2bdf 3.0".
COMMENT
FONT -FreeType-Courier Prime-Bold-R-Normal--22-160-100-100-P-110-ISO10646-1
SIZE 16 100 100
FONTBOUNDINGBOX 26 26 -9 -6
STARTPROPERTIES 19
FOUNDRY "FreeType"
FAMILY_NAME "Courier Prime"
WEIGHT_NAME "Bold"
SLANT "R"
SETWIDTH_NAME "Normal"
ADD_STYLE_NAME ""
PIXEL_SIZE 22
POINT_SIZE 160
RESOLUTION_X 100
RESOLUTION_Y 100
SPACING "P"
AVERAGE_WIDTH 110
CHARSET_REGISTRY "ISO10646"
CHARSET_ENCODING "1"
FONT_ASCENT 17
FONT_DESCENT 7
COPYRIGHT "Copyright 2015 The Courier Prime Project Authors (https://github.com/quoteunquoteapps/CourierPrime)."
_OTF_FONTFILE "CourierPrime-Bold.ttf"
_OTF_PSNAME "CourierPrime-Bold"
ENDPROPERTIES
CHARS 383
STARTCHAR 000D
ENCODING 13
SWIDTH 585 0
DWIDTH 13 0
BBX 0 0 0 0
BITMAP
ENDCHAR
STARTCHAR 0020
ENCODING 32
SWIDTH 585 0
DWIDTH 13 0
BBX 0 0 0 0
BITMAP
ENDCHAR
STARTCHAR 0021
ENCODING 33
SWIDTH 585 0
DWIDTH 13 0
BBX 3 14 5 0
BITMAP
E0
E0
E0
E0
E0
E0
E0
60
00
00
E0
E0
E0
E0
ENDCHAR
STARTCHAR 0022
ENCODING 34
SWIDTH 585 0
DWIDTH 13 0
BBX 9 6 2 8
BITMAP
E380
E380
E380
E380
6380
6100
ENDCHAR
STARTCHAR 0023
ENCODING 35
SWIDTH 585 0
DWIDTH 13 0
BBX 12 13 1 0
BITMAP
0CE0
0CC0
1CC0
7FF0
FFF0
1980
3180
3180
FFE0
FFE0
6300
6700
6600
ENDCHAR
STARTCHAR 0024
ENCODING 36
SWIDTH 585 0
DWIDTH 13 0
BBX 10 15 2 -1
BITMAP
0C00
0C00
7D80
FF80
EF80
ED80
FE00
7F80
1F80
CDC0
EF80
FF80
DF00
0C00
0C00
ENDCHAR
STARTCHAR 0025
ENCODING 37
SWIDTH 585 0
DWIDTH 13 0
BBX 12 13 1 0
BITMAP
7000
F820
D860
D9E0
FB80
7700
0E00
1DC0
3BE0
7370
E370
43E0
01C0
ENDCHAR
STARTCHAR 0026
ENCODING 38
SWIDTH 585 0
DWIDTH 13 0
BBX 11 13 1 0
BITMAP
1F00
3F80
7B80
7180
7000
3800
3CE0
7FE0
EF80
E780
F7C0
7FE0
3CE0
ENDCHAR
STARTCHAR 0027
ENCODING 39
SWIDTH 585 0
DWIDTH 13 0
BBX 3 6 5 8
BITMAP
E0
E0
E0
E0
E0
60
ENDCHAR
STARTCHAR 0028
ENCODING 40
SWIDTH 585 0
DWIDTH 13 0
BBX 7 19 3 -4
BITMAP
04
0E
1E
3C
70
70
E0
E0
E0
C0
C0
E0
E0
E0
70
38
3C
1E
04
ENDCHAR
STARTCHAR 0029
ENCODING 41
SWIDTH 585 0
DWIDTH 13 0
BBX 7 19 3 -4
BITMAP
40
E0
F0
38
1C
0E
0E
0E
06
06
06
06
0E
0E
1C
3C
78
F0
60
ENDCHAR
STARTCHAR 002A
ENCODING 42
SWIDTH 585 0
DWIDTH 13 0
BBX 9 8 2 5
BITMAP
1C00
1C00
CD80
FF80
7F80
1E00
3700
7700
ENDCHAR
STARTCHAR 002B
ENCODING 43
SWIDTH 585 0
DWIDTH 13 0
BBX 9 9 2 1
BITMAP
1C00
1C00
1C00
FF80
FF80
1C00
1C00
1C00
1C00
ENDCHAR
STARTCHAR 002C
ENCODING 44
SWIDTH 585 0
DWIDTH 13 0
BBX 4 7 4 -3
BITMAP
70
70
F0
E0
E0
C0
C0
ENDCHAR
STARTCHAR 002D
ENCODING 45
SWIDTH 585 0
DWIDTH 13 0
BBX 9 2 2 5
BITMAP
FF80
FF80
ENDCHAR
STARTCHAR 002E
ENCODING 46
SWIDTH 585 0
DWIDTH 13 0
BBX 3 4 5 0
BITMAP
E0
E0
E0
E0
ENDCHAR
STARTCHAR 002F
ENCODING 47
SWIDTH 585 0
DWIDTH 13 0
BBX 9 19 2 -4
BITMAP
0100
0180
0380
0380
0700
0700
0600
0E00
0E00
1C00
1C00
3800
3800
3000
7000
7000
E000
E000
C000
ENDCHAR
STARTCHAR 0030
ENCODING 48
SWIDTH 585 0
DWIDTH 13 0
BBX 11 13 1 0
BITMAP
1F00
3F80
7BC0
71C0
70E0
E0E0
E0E0
E0E0
70E0
71C0
7BC0
3F80
1F00
ENDCHAR
STARTCHAR 0031
ENCODING 49
SWIDTH 585 0
DWIDTH 13 0
BBX 9 13 2 0
BITMAP
0C00
1C00
7C00
FC00
CC00
0C00
0C00
0C00
0C00
0C00
0C00
FF80
FF80
ENDCHAR
STARTCHAR 0032
ENCODING 50
SWIDTH 585 0
DWIDTH 13 0
BBX 9 13 2 0
BITMAP
3E00
FF00
E780
E380
E380
0780
0F00
1E00
3C00
7980
F180
FF80
FF80
ENDCHAR
STARTCHAR 0033
ENCODING 51
SWIDTH 585 0
DWIDTH 13 0
BBX 9 13 2 0
BITMAP
7E00
FF00
E780
E380
0380
1F00
1F00
0780
0380
0380
E780
FF00
7E00
ENDCHAR
STARTCHAR 0034
ENCODING 52
SWIDTH 585 0
DWIDTH 13 0
BBX 11 13 1 0
BITMAP
0300
0700
0F00
1F00
3B00
3300
7300
FFE0
FFE0
0300
0300
1FC0
1FC0
ENDCHAR
STARTCHAR 0035
ENCODING 53
SWIDTH 585 0
DWIDTH 13 0
BBX 9 13 2 0
BITMAP
7F80
7F80
6000
6000
E000
FF00
FF80
4380
0380
0380
E780
FF00
7E00
ENDCHAR
STARTCHAR 0036
ENCODING 54
SWIDTH 585 0
DWIDTH 13 0
BBX 10 13 2 0
BITMAP
0780
1F80
7E00
7000
E000
FF00
FF80
F380
E1C0
E1C0
F380
7F80
3E00
ENDCHAR
STARTCHAR 0037
ENCODING 55
SWIDTH 585 0
DWIDTH 13 0
BBX 10 13 2 0
BITMAP
FFC0
FFC0
C380
C380
C300
0700
0700
0E00
0E00
1C00
1C00
3800
1800
ENDCHAR
STARTCHAR 0038
ENCODING 56
SWIDTH 585 0
DWIDTH 13 0
BBX 9 13 2 0
BITMAP
3E00
7F00
F780
E380
E380
7F00
7F00
F780
E380
E380
F780
7F80
3E00
ENDCHAR
STARTCHAR 0039
ENCODING 57
SWIDTH 585 0
DWIDTH 13 0
BBX 9 13 2 0
BITMAP
3E00
7F00
F780
E380
C380
E380
FF80
7D80
0380
0380
1F00
7E00
7800
ENDCHAR
STARTCHAR 003A
ENCODING 58
SWIDTH 585 0
DWIDTH 13 0
BBX 3 10 5 0
BITMAP
E0
E0
E0
E0
00
00
E0
E0
E0
E0
ENDCHAR
STARTCHAR 003B
ENCODING 59
SWIDTH 585 0
DWIDTH 13 0
BBX 5 13 4 -3
BITMAP
70
70
70
70
00
00
78
70
70
60
E0
C0
C0
ENDCHAR
STARTCHAR 003C
ENCODING 60
SWIDTH 585 0
DWIDTH 13 0
BBX 11 11 1 1
BITMAP
00C0
03E0
07C0
1F00
7C00
F000
7C00
1F00
07C0
03E0
00C0
ENDCHAR
STARTCHAR 003D
ENCODING 61
SWIDTH 585 0
DWIDTH 13 0
BBX 9 7 2 3
BITMAP
FF80
FF80
0000
0000
0000
FF80
FF80
ENDCHAR
STARTCHAR 003E
ENCODING 62
SWIDTH 585 0
DWIDTH 13 0
BBX 10 11 2 1
BITMAP
C000
F000
FC00
3F00
0F80
03C0
0F80
3F00
FC00
F000
C000
ENDCHAR
STARTCHAR 003F
ENCODING 63
SWIDTH 585 0
DWIDTH 13 0
BBX 9 14 2 0
BITMAP
3E00
FF00
E780
E380
4380
0700
1F00
1C00
1800
0000
0000
1C00
1C00
1C00
ENDCHAR
STARTCHAR 0040
ENCODING 64
SWIDTH 585 0
DWIDTH 13 0
BBX 13 13 0 -2
BITMAP
07C0
1FE0
3870
67B0
6FD8
4C98
C998
D998
CEF0
6EE0
7000
3F80
1F80
ENDCHAR
STARTCHAR 0041
ENCODING 65
SWIDTH 585 0
DWIDTH 13 0
BBX 13 13 0 0
BITMAP
3F00
3F80
0F80
0D80
1DC0
1DC0
18C0
3FE0
3FE0
3860
7070
FDF8
FDF8
ENDCHAR
STARTCHAR 0042
ENCODING 66
SWIDTH 585 0
DWIDTH 13 0
BBX 11 13 1 0
BITMAP
FF80
FFC0
31C0
30C0
30C0
31C0
3F80
3FE0
30E0
30E0
31E0
FFE0
FF80
ENDCHAR
STARTCHAR 0043
ENCODING 67
SWIDTH 585 0
DWIDTH 13 0
BBX 11 13 1 0
BITMAP
1F60
3FE0
79E0
70E0
E0E0
E000
E000
E000
E000
7020
79E0
3FE0
1F80
ENDCHAR
STARTCHAR 0044
ENCODING 68
SWIDTH 585 0
DWIDTH 13 0
BBX 11 13 1 0
BITMAP
FF00
FFC0
73C0
70E0
70E0
70E0
7060
70E0
70E0
70E0
73C0
FFC0
FF00
ENDCHAR
STARTCHAR 0045
ENCODING 69
SWIDTH 585 0
DWIDTH 13 0
BBX 11 13 1 0
BITMAP
FFE0
FFE0
70E0
70E0
70E0
7000
7E00
7E00
7060
70E0
70E0
FFE0
FFE0
ENDCHAR
STARTCHAR 0046
ENCODING 70
SWIDTH 585 0
DWIDTH 13 0
BBX 11 13 1 0
BITMAP
FFE0
FFE0
3060
3060
3060
3000
3F00
3F00
3000
3000
3000
FE00
FE00
ENDCHAR
STARTCHAR 0047
ENCODING 71
SWIDTH 585 0
DWIDTH 13 0
BBX 12 13 1 0
BITMAP
1EE0
3FE0
79E0
E0E0
E0E0
E000
E7F0
E7F0
E0E0
E0E0
79E0
3FE0
1F80
ENDCHAR
STARTCHAR 0048
ENCODING 72
SWIDTH 585 0
DWIDTH 13 0
BBX 12 13 1 0
BITMAP
FBF0
FBF0
70C0
70C0
70C0
70C0
7FC0
7FC0
70C0
70C0
70C0
FBF0
FBF0
ENDCHAR
STARTCHAR 0049
ENCODING 73
SWIDTH 585 0
DWIDTH 13 0
BBX 9 13 2 0
BITMAP
FF80
FF80
1C00
1C00
1C00
1C00
1C00
1C00
1C00
1C00
1C00
FF80
FF80
ENDCHAR
STARTCHAR 004A
ENCODING 74
SWIDTH 585 0
DWIDTH 13 0
BBX 12 13 1 0
BITMAP
3FF0
3FF0
0380
0380
0380
0380
0380
E380
E380
E380
E780
FF00
3E00
ENDCHAR
STARTCHAR 004B
ENCODING 75
SWIDTH 585 0
DWIDTH 13 0
BBX 12 13 1 0
BITMAP
FBF0
FBF0
71E0
73C0
7700
7E00
7F00
7F80
71C0
71C0
70E0
FCF0
FC70
ENDCHAR
STARTCHAR 004C
ENCODING 76
SWIDTH 585 0
DWIDTH 13 0
BBX 11 13 1 0
BITMAP
FF00
FF00
3800
3800
3800
3800
3800
38E0
38E0
38E0
38E0
FFE0
FFE0
ENDCHAR
STARTCHAR 004D
ENCODING 77
SWIDTH 585 0
DWIDTH 13 0
BBX 13 13 0 0
BITMAP
F8F8
F8F8
38F0
3DF0
3DF0
3DF0
77F0
7770
7770
7070
7070
F8F8
F8F8
ENDCHAR
STARTCHAR 004E
ENCODING 78
SWIDTH 585 0
DWIDTH 13 0
BBX 12 13 1 0
BITMAP
F1F0
F3F0
78E0
7CE0
7CE0
6EE0
66E0
67E0
63E0
63E0
61E0
F8E0
F8E0
ENDCHAR
STARTCHAR 004F
ENCODING 79
SWIDTH 585 0
DWIDTH 13 0
BBX 12 13 1 0
BITMAP
1F00
3FC0
7BC0
E0E0
E0E0
E060
E070
E060
E0E0
E0E0
7BC0
3FC0
1F00
ENDCHAR
STARTCHAR 0050
ENCODING 80
SWIDTH 585 0
DWIDTH 13 0
BBX 11 13 1 0
BITMAP
FF80
FFC0
39E0
38E0
38E0
38E0
39E0
3FC0
3F80
3800
3800
FF00
FF00
ENDCHAR
STARTCHAR 0051
ENCODING 81
SWIDTH 585 0
DWIDTH 13 0
BBX 12 16 1 -3
BITMAP
1F00
7FC0
7BE0
E0E0
E0E0
E070
E070
E0E0
E0E0
7BE0
7FC0
1F00
3800
3F60
7FE0
73C0
ENDCHAR
STARTCHAR 0052
ENCODING 82
SWIDTH 585 0
DWIDTH 13 0
BBX 12 13 1 0
BITMAP
FF80
FFC0
71C0
70E0
70E0
71C0
7FC0
7F80
7380
71C0
71E0
FCF0
FC70
ENDCHAR
STARTCHAR 0053
ENCODING 83
SWIDTH 585 0
DWIDTH 13 0
BBX 10 13 2 0
BITMAP
3D80
FF80
E780
C180
E000
FE00
7F80
0F80
C1C0
C1C0
F380
FF80
DF00
ENDCHAR
STARTCHAR 0054
ENCODING 84
SWIDTH 585 0
DWIDTH 13 0
BBX 11 13 1 0
BITMAP
FFE0
FFE0
CE60
CE60
CE60
CE60
0E00
0E00
0E00
0E00
0E00
7FC0
7FC0
ENDCHAR
STARTCHAR 0055
ENCODING 85
SWIDTH 585 0
DWIDTH 13 0
BBX 12 13 1 0
BITMAP
FBF0
FBF0
60C0
60C0
60C0
60C0
60C0
60C0
60C0
70C0
7BC0
3F80
1F00
ENDCHAR
STARTCHAR 0056
ENCODING 86
SWIDTH 585 0
DWIDTH 13 0
BBX 13 13 0 0
BITMAP
FCF8
FCF8
7070
3860
38E0
18E0
1DC0
1DC0
0D80
0F80
0F80
0700
0700
ENDCHAR
STARTCHAR 0057
ENCODING 87
SWIDTH 585 0
DWIDTH 13 0
BBX 13 13 0 0
BITMAP
F8F8
F8F8
6030
7030
7730
7730
77F0
3DF0
3DE0
3DE0
38E0
38E0
38E0
ENDCHAR
STARTCHAR 0058
ENCODING 88
SWIDTH 585 0
DWIDTH 13 0
BBX 13 13 0 0
BITMAP
7DF0
7DF8
38E0
1DC0
1FC0
0F80
0700
0F80
1DC0
3CE0
38E0
FDF8
FDF8
ENDCHAR
STARTCHAR 0059
ENCODING 89
SWIDTH 585 0
DWIDTH 13 0
BBX 13 13 0 0
BITMAP
FDF8
FDF8
3870
38E0
1DC0
0FC0
0F80
0700
0700
0700
0700
3FE0
1FE0
ENDCHAR
STARTCHAR 005A
ENCODING 90
SWIDTH 585 0
DWIDTH 13 0
BBX 11 13 1 0
BITMAP
7FE0
7FE0
61C0
6380
6780
0700
0E00
1E00
3CE0
38E0
70E0
FFE0
7FE0
ENDCHAR
STARTCHAR 005B
ENCODING 91
SWIDTH 585 0
DWIDTH 13 0
BBX 7 18 3 -4
BITMAP
FE
FE
E0
E0
E0
E0
E0
E0
E0
E0
E0
E0
E0
E0
E0
E0
FE
FE
ENDCHAR
STARTCHAR 005C
ENCODING 92
SWIDTH 585 0
DWIDTH 13 0
BBX 9 19 2 -4
BITMAP
4000
E000
E000
6000
7000
7000
3800
3800
1800
1C00
1C00
0E00
0E00
0700
0700
0300
0380
0380
0180
ENDCHAR
STARTCHAR 005D
ENCODING 93
SWIDTH 585 0
DWIDTH 13 0
BBX 7 18 3 -4
BITMAP
FE
FE
0E
0E
0E
0E
0E
0E
0E
0E
0E
0E
0E
0E
0E
0E
FE
FE
ENDCHAR
STARTCHAR 005E
ENCODING 94
SWIDTH 585 0
DWIDTH 13 0
BBX 9 8 2 5
BITMAP
1C00
1C00
3E00
3E00
7700
7300
E380
E180
ENDCHAR
STARTCHAR 005F
ENCODING 95
SWIDTH 585 0
DWIDTH 13 0
BBX 14 2 0 -5
BITMAP
FFFC
FFFC
ENDCHAR
STARTCHAR 0060
ENCODING 96
SWIDTH 585 0
DWIDTH 13 0
BBX 6 5 3 11
BITMAP
40
E0
F0
3C
0C
ENDCHAR
STARTCHAR 0061
ENCODING 97
SWIDTH 585 0
DWIDTH 13 0
BBX 12 10 1 0
BITMAP
3F00
7F80
73C0
01C0
7FC0
FFC0
E1C0
F7C0
7FF0
3EF0
ENDCHAR
STARTCHAR 0062
ENCODING 98
SWIDTH 585 0
DWIDTH 13 0
BBX 12 14 0 0
BITMAP
F800
F800
3800
3800
3BC0
3FE0
3CF0
3870
3870
3870
3870
3CF0
FFE0
73C0
ENDCHAR
STARTCHAR 0063
ENCODING 99
SWIDTH 585 0
DWIDTH 13 0
BBX 11 10 1 0
BITMAP
1EC0
3FC0
7BC0
70C0
E0C0
E000
7000
79C0
3FE0
1F80
ENDCHAR
STARTCHAR 0064
ENCODING 100
SWIDTH 585 0
DWIDTH 13 0
BBX 12 14 1 0
BITMAP
07C0
07C0
01C0
01C0
3FC0
7FC0
73C0
E1C0
E0C0
E0C0
E1C0
73C0
7FF0
3EF0
ENDCHAR
STARTCHAR 0065
ENCODING 101
SWIDTH 585 0
DWIDTH 13 0
BBX 11 10 1 0
BITMAP
1F00
3FC0
79C0
60E0
FFE0
FFE0
6000
79C0
3FE0
1F80
ENDCHAR
STARTCHAR 0066
ENCODING 102
SWIDTH 585 0
DWIDTH 13 0
BBX 10 14 2 0
BITMAP
0F80
1FC0
1CC0
3800
3800
FF80
FF80
3800
3800
3800
3800
3800
FF80
FF80
ENDCHAR
STARTCHAR 0067
ENCODING 103
SWIDTH 585 0
DWIDTH 13 0
BBX 12 14 1 -4
BITMAP
3EF0
7FF0
73C0
E1C0
E0C0
E0C0
E1C0
73C0
7FC0
3FC0
01C0
73C0
7F80
7F00
ENDCHAR
STARTCHAR 0068
ENCODING 104
SWIDTH 585 0
DWIDTH 13 0
BBX 13 14 0 0
BITMAP
7800
F800
3800
3800
3BC0
3FE0
3EE0
3C60
3860
3860
3860
3860
7DF8
7DF8
ENDCHAR
STARTCHAR 0069
ENCODING 105
SWIDTH 585 0
DWIDTH 13 0
BBX 10 14 2 0
BITMAP
1C00
1C00
1C00
0000
FC00
FC00
1C00
1C00
1C00
1C00
1C00
1C00
FFC0
FFC0
ENDCHAR
STARTCHAR 006A
ENCODING 106
SWIDTH 585 0
DWIDTH 13 0
BBX 8 18 2 -4
BITMAP
07
07
07
00
FF
FF
07
07
07
07
07
07
07
07
07
EF
FE
7C
ENDCHAR
STARTCHAR 006B
ENCODING 107
SWIDTH 585 0
DWIDTH 13 0
BBX 12 14 1 0
BITMAP
F000
F000
7000
7000
73E0
73E0
71C0
7780
7F00
7F80
7380
71C0
FDF0
FCF0
ENDCHAR
STARTCHAR 006C
ENCODING 108
SWIDTH 585 0
DWIDTH 13 0
BBX 10 14 2 0
BITMAP
FC00
FC00
1C00
1C00
1C00
1C00
1C00
1C00
1C00
1C00
1C00
1C00
FFC0
FFC0
ENDCHAR
STARTCHAR 006D
ENCODING 109
SWIDTH 585 0
DWIDTH 13 0
BBX 13 10 0 0
BITMAP
EE70
EFF0
7FB0
7738
7738
7738
7738
7738
7738
7730
ENDCHAR
STARTCHAR 006E
ENCODING 110
SWIDTH 585 0
DWIDTH 13 0
BBX 12 10 1 0
BITMAP
F780
FFC0
7DC0
78C0
70C0
70C0
70C0
70C0
F9F0
F9F0
ENDCHAR
STARTCHAR 006F
ENCODING 111
SWIDTH 585 0
DWIDTH 13 0
BBX 11 10 1 0
BITMAP
1F00
3FC0
7BC0
E0E0
E0E0
E0E0
E0E0
7BC0
3FC0
1F00
ENDCHAR
STARTCHAR 0070
ENCODING 112
SWIDTH 585 0
DWIDTH 13 0
BBX 12 14 0 -4
BITMAP
F3C0
FFE0
3CF0
3870
3870
3870
3870
3CF0
3FE0
3BC0
3800
3800
FE00
FE00
ENDCHAR
STARTCHAR 0071
ENCODING 113
SWIDTH 585 0
DWIDTH 13 0
BBX 12 14 1 -4
BITMAP
3EF0
7FF0
73C0
E1C0
E0C0
E0C0
E1C0
73C0
7FC0
3FC0
01C0
01C0
07F0
07F0
ENDCHAR
STARTCHAR 0072
ENCODING 114
SWIDTH 585 0
DWIDTH 13 0
BBX 11 10 1 0
BITMAP
79E0
7BE0
1F60
1C00
1C00
1800
1800
1800
FF80
FF80
ENDCHAR
STARTCHAR 0073
ENCODING 115
SWIDTH 585 0
DWIDTH 13 0
BBX 10 10 2 0
BITMAP
7D80
FF80
E780
E180
FF00
3F80
C1C0
F380
FF80
DF00
ENDCHAR
STARTCHAR 0074
ENCODING 116
SWIDTH 585 0
DWIDTH 13 0
BBX 11 13 1 0
BITMAP
1800
1800
1800
1800
FFC0
FFC0
1800
1800
1800
1C00
1CE0
1FE0
0F80
ENDCHAR
STARTCHAR 0075
ENCODING 117
SWIDTH 585 0
DWIDTH 13 0
BBX 12 10 1 0
BITMAP
F3C0
F3C0
71C0
71C0
71C0
71C0
71C0
73C0
7EF0
3CF0
ENDCHAR
STARTCHAR 0076
ENCODING 118
SWIDTH 585 0
DWIDTH 13 0
BBX 13 10 0 0
BITMAP
FDF8
FDF8
3860
38E0
1CC0
1DC0
0D80
0F80
0780
0700
ENDCHAR
STARTCHAR 0077
ENCODING 119
SWIDTH 585 0
DWIDTH 13 0
BBX 13 10 0 0
BITMAP
F878
F8F8
6230
6730
7770
3FF0
3DE0
3DE0
38E0
38E0
ENDCHAR
STARTCHAR 0078
ENCODING 120
SWIDTH 585 0
DWIDTH 13 0
BBX 11 10 1 0
BITMAP
FBE0
FBE0
79C0
3F80
1F00
1F00
3B80
71C0
FBE0
FBE0
ENDCHAR
STARTCHAR 0079
ENCODING 121
SWIDTH 585 0
DWIDTH 13 0
BBX 13 14 0 -4
BITMAP
FDF8
FDF8
3860
38E0
1CC0
1DC0
0F80
0780
0700
0700
0E00
1E00
7C00
7800
ENDCHAR
STARTCHAR 007A
ENCODING 122
SWIDTH 585 0
DWIDTH 13 0
BBX 11 10 1 0
BITMAP
7FE0
7FE0
63C0
6780
0F00
1E00
3CE0
78E0
FFE0
7FE0
ENDCHAR
STARTCHAR 007B
ENCODING 123
SWIDTH 585 0
DWIDTH 13 0
BBX 9 19 2 -4
BITMAP
0080
0F80
1F80
1C00
1800
1800
1C00
3800
F800
F000
7800
1800
1C00
1800
1800
1C00
1E00
0F80
0780
ENDCHAR
STARTCHAR 007C
ENCODING 124
SWIDTH 585 0
DWIDTH 13 0
BBX 3 19 5 -4
BITMAP
40
E0
E0
E0
E0
E0
E0
E0
E0
E0
E0
E0
E0
E0
E0
E0
E0
E0
E0
ENDCHAR
STARTCHAR 007D
ENCODING 125
SWIDTH 585 0
DWIDTH 13 0
BBX 9 19 2 -4
BITMAP
4000
F800
7C00
1C00
0C00
0C00
0C00
0E00
0780
0380
0F00
0C00
0C00
0C00
0C00
0C00
3C00
FC00
7000
ENDCHAR
STARTCHAR 007E
ENCODING 126
SWIDTH 585 0
DWIDTH 13 0
BBX 11 4 1 4
BITMAP
3800
7EE0
EFC0
0380
ENDCHAR
STARTCHAR 00A0
ENCODING 160
SWIDTH 585 0
DWIDTH 13 0
BBX 0 0 0 0
BITMAP
ENDCHAR
STARTCHAR 00A1
ENCODING 161
SWIDTH 585 0
DWIDTH 13 0
BBX 3 14 5 -4
BITMAP
E0
E0
E0
E0
00
00
60
E0
E0
E0
E0
E0
E0
E0
ENDCHAR
STARTCHAR 00A2
ENCODING 162
SWIDTH 585 0
DWIDTH 13 0
BBX 11 15 1 -1
BITMAP
0600
0600
1EC0
3FC0
7FC0
76C0
E6C0
E600
E600
76C0
7FE0
3FC0
0600
0600
0600
ENDCHAR
STARTCHAR 00A3
ENCODING 163
SWIDTH 585 0
DWIDTH 13 0
BBX 9 13 2 0
BITMAP
3E00
7F80
7380
6380
6100
7000
FF00
FF00
3800
3000
7000
FF80
FF80
ENDCHAR
STARTCHAR 00A4
ENCODING 164
SWIDTH 585 0
DWIDTH 13 0
BBX 11 11 1 1
BITMAP
4040
EFE0
7FC0
3BC0
71C0
70C0
71C0
3BC0
7FC0
EFE0
4040
ENDCHAR
STARTCHAR 00A5
ENCODING 165
SWIDTH 585 0
DWIDTH 13 0
BBX 13 13 0 0
BITMAP
FDF8
FDF8
3870
38E0
7DF0
7DF0
0F80
0700
7FF0
3FF0
0700
3FE0
1FE0
ENDCHAR
STARTCHAR 00A6
ENCODING 166
SWIDTH 585 0
DWIDTH 13 0
BBX 3 19 5 -4
BITMAP
40
E0
E0
E0
E0
E0
E0
E0
40
00
00
E0
E0
E0
E0
E0
E0
E0
E0
ENDCHAR
STARTCHAR 00A7
ENCODING 167
SWIDTH 585 0
DWIDTH 13 0
BBX 9 15 2 -2
BITMAP
3F80
7F80
7380
6380
7800
FE00
DF80
E380
F980
7F80
0F80
E700
E300
FF00
FF00
ENDCHAR
STARTCHAR 00A8
ENCODING 168
SWIDTH 585 0
DWIDTH 13 0
BBX 7 3 3 11
BITMAP
E6
E6
E6
ENDCHAR
STARTCHAR 00A9
ENCODING 169
SWIDTH 585 0
DWIDTH 13 0
BBX 13 13 0 0
BITMAP
0F80
3FE0
3070
6FB0
4F98
DC18
D818
DC18
4F98
6FB0
3070
3FE0
0F80
ENDCHAR
STARTCHAR 00AA
ENCODING 170
SWIDTH 585 0
DWIDTH 13 0
BBX 9 8 2 5
BITMAP
3E00
7F00
0300
7F00
7F00
E300
7F80
3D80
ENDCHAR
STARTCHAR 00AB
ENCODING 171
SWIDTH 585 0
DWIDTH 13 0
BBX 11 9 1 1
BITMAP
18C0
38E0
71C0
7380
E300
7380
71C0
38E0
18C0
ENDCHAR
STARTCHAR 00AC
ENCODING 172
SWIDTH 585 0
DWIDTH 13 0
BBX 11 6 1 3
BITMAP
FFE0
FFE0
00E0
00E0
00E0
00E0
ENDCHAR
STARTCHAR 00AD
ENCODING 173
SWIDTH 585 0
DWIDTH 13 0
BBX 9 2 2 3
BITMAP
FF80
FF80
ENDCHAR
STARTCHAR 00AE
ENCODING 174
SWIDTH 585 0
DWIDTH 13 0
BBX 11 11 1 4
BITMAP
1F00
3180
60C0
5E40
DB60
D960
DF60
5B60
7940
3080
1F00
ENDCHAR
STARTCHAR 00AF
ENCODING 175
SWIDTH 585 0
DWIDTH 13 0
BBX 7 2 3 11
BITMAP
FE
FE
ENDCHAR
STARTCHAR 00B0
ENCODING 176
SWIDTH 585 0
DWIDTH 13 0
BBX 7 7 2 6
BITMAP
3C
7E
6E
E6
6E
7E
3C
ENDCHAR
STARTCHAR 00B1
ENCODING 177
SWIDTH 585 0
DWIDTH 13 0
BBX 9 12 2 0
BITMAP
1C00
1C00
1C00
FF80
FF80
1C00
1C00
1C00
0000
0000
FF80
FF80
ENDCHAR
STARTCHAR 00B2
ENCODING 178
SWIDTH 585 0
DWIDTH 13 0
BBX 8 9 3 5
BITMAP
7C
FE
C6
46
0C
38
73
FF
FF
ENDCHAR
STARTCHAR 00B3
ENCODING 179
SWIDTH 585 0
DWIDTH 13 0
BBX 7 9 3 5
BITMAP
7C
FE
C6
3E
3E
06
86
FE
7C
ENDCHAR
STARTCHAR 00B4
ENCODING 180
SWIDTH 585 0
DWIDTH 13 0
BBX 6 5 4 11
BITMAP
08
1C
3C
F0
40
ENDCHAR
STARTCHAR 00B5
ENCODING 181
SWIDTH 585 0
DWIDTH 13 0
BBX 9 14 2 -4
BITMAP
E180
E180
E180
E180
E180
E380
E380
FF80
FF80
F980
E000
E000
E000
E000
ENDCHAR
STARTCHAR 00B6
ENCODING 182
SWIDTH 585 0
DWIDTH 13 0
BBX 11 17 1 -4
BITMAP
3FE0
7FE0
FCC0
FCC0
FCC0
FCC0
7CC0
3CC0
0CC0
0CC0
0CC0
0CC0
0CC0
0CC0
0CC0
0CC0
0CC0
ENDCHAR
STARTCHAR 00B7
ENCODING 183
SWIDTH 585 0
DWIDTH 13 0
BBX 3 4 5 4
BITMAP
E0
E0
E0
E0
ENDCHAR
STARTCHAR 00B8
ENCODING 184
SWIDTH 585 0
DWIDTH 13 0
BBX 6 5 4 -5
BITMAP
60
78
1C
FC
F8
ENDCHAR
STARTCHAR 00B9
ENCODING 185
SWIDTH 585 0
DWIDTH 13 0
BBX 7 9 3 5
BITMAP
18
78
F8
18
18
18
18
FE
FE
ENDCHAR
STARTCHAR 00BA
ENCODING 186
SWIDTH 585 0
DWIDTH 13 0
BBX 9 8 2 5
BITMAP
3E00
7F00
6380
E180
E180
6380
7F00
3E00
ENDCHAR
STARTCHAR 00BB
ENCODING 187
SWIDTH 585 0
DWIDTH 13 0
BBX 11 9 1 1
BITMAP
6100
E380
71C0
38E0
1CE0
38E0
71C0
E380
6100
ENDCHAR
STARTCHAR 00BC
ENCODING 188
SWIDTH 585 0
DWIDTH 13 0
BBX 13 17 0 -2
BITMAP
3000
F000
F000
3000
3000
3000
FC30
FCF0
03C0
0F30
1C70
7070
40F0
01B0
01F8
01F8
0030
ENDCHAR
STARTCHAR 00BD
ENCODING 189
SWIDTH 585 0
DWIDTH 13 0
BBX 13 17 0 -2
BITMAP
1000
7000
F000
3000
3000
3010
FC70
01C0
0380
0E00
39F0
7198
4098
0038
0060
00C8
01F8
ENDCHAR
STARTCHAR 00BE
ENCODING 190
SWIDTH 585 0
DWIDTH 13 0
BBX 13 17 0 -2
BITMAP
F800
FC00
CC00
3800
3C00
0C00
FC30
78E0
0380
0F30
3C70
7070
40F0
01B0
01F8
01F8
0030
ENDCHAR
STARTCHAR 00BF
ENCODING 191
SWIDTH 585 0
DWIDTH 13 0
BBX 9 14 2 -4
BITMAP
1C00
1C00
1C00
0000
0000
0C00
1C00
7C00
7800
E000
E380
7380
7F80
3E00
ENDCHAR
STARTCHAR 00C0
ENCODING 192
SWIDTH 585 0
DWIDTH 13 0
BBX 13 19 0 0
BITMAP
0800
1C00
1E00
0F00
0300
0000
3F00
3F80
0F80
0D80
1DC0
1DC0
18C0
3FE0
3FE0
3860
7070
FDF8
FDF8
ENDCHAR
STARTCHAR 00C1
ENCODING 193
SWIDTH 585 0
DWIDTH 13 0
BBX 13 19 0 0
BITMAP
0080
0380
07C0
0F00
0C00
0000
3F00
3F80
0F80
0D80
1DC0
1DC0
18C0
3FE0
3FE0
3860
7070
FDF8
FDF8
ENDCHAR
STARTCHAR 00C2
ENCODING 194
SWIDTH 585 0
DWIDTH 13 0
BBX 13 18 0 0
BITMAP
0600
0F80
1FC0
18C0
0000
3F00
3F80
0F80
0D80
1DC0
1DC0
18C0
3FE0
3FE0
3860
7070
FDF8
FDF8
ENDCHAR
STARTCHAR 00C3
ENCODING 195
SWIDTH 585 0
DWIDTH 13 0
BBX 13 17 0 0
BITMAP
1EC0
3FC0
3380
0000
3F00
3F80
0F80
0D80
1DC0
1DC0
18C0
3FE0
3FE0
3860
7070
FDF8
FDF8
ENDCHAR
STARTCHAR 00C4
ENCODING 196
SWIDTH 585 0
DWIDTH 13 0
BBX 13 17 0 0
BITMAP
19C0
19C0
19C0
0000
3F00
3F80
0F80
0D80
1DC0
1DC0
18C0
3FE0
3FE0
3860
7070
FDF8
FDF8
ENDCHAR
STARTCHAR 00C5
ENCODING 197
SWIDTH 585 0
DWIDTH 13 0
BBX 13 20 0 0
BITMAP
0700
0F80
0D80
0D80
0F80
0700
0000
3F00
3F80
0F80
0D80
1DC0
1DC0
18C0
3FE0
3FE0
3860
7070
FDF8
FDF8
ENDCHAR
STARTCHAR 00C6
ENCODING 198
SWIDTH 585 0
DWIDTH 13 0
BBX 13 13 0 0
BITMAP
7FF0
7FF0
1B30
1B30
3B00
3BC0
33C0
3F00
7F38
7338
6338
FBF8
F3F8
ENDCHAR
STARTCHAR 00C7
ENCODING 199
SWIDTH 585 0
DWIDTH 13 0
BBX 11 18 1 -5
BITMAP
1F60
3FE0
79E0
70E0
E0E0
E000
E000
E000
E000
7060
3FE0
1FC0
0600
0780
0180
1180
1F80
0F00
ENDCHAR
STARTCHAR 00C8
ENCODING 200
SWIDTH 585 0
DWIDTH 13 0
BBX 11 19 1 0
BITMAP
1000
1800
3E00
0F00
0300
0000
FFE0
FFE0
70E0
70E0
70E0
7000
7E00
7E00
7060
70E0
70E0
FFE0
FFE0
ENDCHAR
STARTCHAR 00C9
ENCODING 201
SWIDTH 585 0
DWIDTH 13 0
BBX 11 19 1 0
BITMAP
0100
0380
0F80
1E00
1800
0000
FFE0
FFE0
70E0
70E0
70E0
7000
7E00
7E00
7060
70E0
70E0
FFE0
FFE0
ENDCHAR
STARTCHAR 00CA
ENCODING 202
SWIDTH 585 0
DWIDTH 13 0
BBX 11 18 1 0
BITMAP
0600
0F00
3F80
30C0
0000
FFE0
FFE0
70E0
70E0
70E0
7000
7E00
7E00
7060
70E0
70E0
FFE0
FFE0
ENDCHAR
STARTCHAR 00CB
ENCODING 203
SWIDTH 585 0
DWIDTH 13 0
BBX 11 17 1 0
BITMAP
39C0
39C0
39C0
0000
FFE0
FFE0
70E0
70E0
70E0
7000
7E00
7E00
7060
70E0
70E0
FFE0
FFE0
ENDCHAR
STARTCHAR 00CC
ENCODING 204
SWIDTH 585 0
DWIDTH 13 0
BBX 9 19 2 0
BITMAP
2000
7000
7800
1E00
0600
0000
FF80
FF80
1C00
1C00
1C00
1C00
1C00
1C00
1C00
1C00
1C00
FF80
FF80
ENDCHAR
STARTCHAR 00CD
ENCODING 205
SWIDTH 585 0
DWIDTH 13 0
BBX 9 19 2 0
BITMAP
0200
0700
0F00
3C00
1000
0000
FF80
FF80
1C00
1C00
1C00
1C00
1C00
1C00
1C00
1C00
1C00
FF80
FF80
ENDCHAR
STARTCHAR 00CE
ENCODING 206
SWIDTH 585 0
DWIDTH 13 0
BBX 9 18 2 0
BITMAP
1C00
3E00
7F00
6300
0000
FF80
FF80
1C00
1C00
1C00
1C00
1C00
1C00
1C00
1C00
1C00
FF80
FF80
ENDCHAR
STARTCHAR 00CF
ENCODING 207
SWIDTH 585 0
DWIDTH 13 0
BBX 9 17 2 0
BITMAP
7300
7300
7300
0000
FF80
FF80
1C00
1C00
1C00
1C00
1C00
1C00
1C00
1C00
1C00
FF80
FF80
ENDCHAR
STARTCHAR 00D0
ENCODING 208
SWIDTH 585 0
DWIDTH 13 0
BBX 12 13 0 0
BITMAP
7F80
7FE0
39E0
3870
3870
3870
FE30
FE70
3870
3870
39E0
7FE0
7F80
ENDCHAR
STARTCHAR 00D1
ENCODING 209
SWIDTH 585 0
DWIDTH 13 0
BBX 12 17 1 0
BITMAP
3DC0
7F80
2700
0000
F1F0
F3F0
78E0
7CE0
7CE0
6EE0
66E0
67E0
63E0
63E0
61E0
F8E0
F8E0
ENDCHAR
STARTCHAR 00D2
ENCODING 210
SWIDTH 585 0
DWIDTH 13 0
BBX 12 19 1 0
BITMAP
1000
3800
3E00
0F00
0300
0000
1F00
3FC0
7BC0
E0E0
E0E0
E060
E070
E060
E0E0
E0E0
7BC0
3FC0
1F00
ENDCHAR
STARTCHAR 00D3
ENCODING 211
SWIDTH 585 0
DWIDTH 13 0
BBX 12 19 1 0
BITMAP
0100
0380
0780
1E00
1800
0000
1F00
3FC0
7BC0
E0E0
E0E0
E060
E070
E060
E0E0
E0E0
7BC0
3FC0
1F00
ENDCHAR
STARTCHAR 00D4
ENCODING 212
SWIDTH 585 0
DWIDTH 13 0
BBX 12 18 1 0
BITMAP
0E00
1F00
3F80
3180
0000
1F00
3FC0
7BC0
E0E0
E0E0
E060
E070
E060
E0E0
E0E0
7BC0
3FC0
1F00
ENDCHAR
STARTCHAR 00D5
ENCODING 213
SWIDTH 585 0
DWIDTH 13 0
BBX 12 17 1 0
BITMAP
3DC0
7F80
2700
0000
1F00
3FC0
7BC0
E0E0
E0E0
E060
E070
E060
E0E0
E0E0
7BC0
3FC0
1F00
ENDCHAR
STARTCHAR 00D6
ENCODING 214
SWIDTH 585 0
DWIDTH 13 0
BBX 12 17 1 0
BITMAP
3980
3980
3980
0000
1F00
3FC0
7BC0
E0E0
E0E0
E060
E070
E060
E0E0
E0E0
7BC0
3FC0
1F00
ENDCHAR
STARTCHAR 00D7
ENCODING 215
SWIDTH 585 0
DWIDTH 13 0
BBX 9 8 2 2
BITMAP
6100
F380
7F00
3E00
3E00
7F00
F380
6100
ENDCHAR
STARTCHAR 00D8
ENCODING 216
SWIDTH 585 0
DWIDTH 13 0
BBX 12 14 1 0
BITMAP
0060
1F60
3FC0
7BC0
E1E0
E3E0
E760
EE70
EC60
F8E0
F8E0
7BC0
7FC0
FF00
ENDCHAR
STARTCHAR 00D9
ENCODING 217
SWIDTH 585 0
DWIDTH 13 0
BBX 12 19 1 0
BITMAP
1000
3800
3C00
0F00
0300
0000
FBF0
FBF0
60C0
60C0
60C0
60C0
60C0
60C0
60C0
70C0
7BC0
3F80
1F00
ENDCHAR
STARTCHAR 00DA
ENCODING 218
SWIDTH 585 0
DWIDTH 13 0
BBX 12 19 1 0
BITMAP
0100
0380
0780
1E00
0800
0000
FBF0
FBF0
60C0
60C0
60C0
60C0
60C0
60C0
60C0
70C0
7BC0
3F80
1F00
ENDCHAR
STARTCHAR 00DB
ENCODING 219
SWIDTH 585 0
DWIDTH 13 0
BBX 12 18 1 0
BITMAP
0E00
1F00
3F80
3180
0000
FBF0
FBF0
60C0
60C0
60C0
60C0
60C0
60C0
60C0
70C0
7BC0
3F80
1F00
ENDCHAR
STARTCHAR 00DC
ENCODING 220
SWIDTH 585 0
DWIDTH 13 0
BBX 12 17 1 0
BITMAP
3980
3980
3980
0000
FBF0
FBF0
60C0
60C0
60C0
60C0
60C0
60C0
60C0
70C0
7BC0
3F80
1F00
ENDCHAR
STARTCHAR 00DD
ENCODING 221
SWIDTH 585 0
DWIDTH 13 0
BBX 13 19 0 0
BITMAP
0080
01C0
03C0
0F00
0400
0000
FDF8
FDF8
3870
38E0
1DC0
0FC0
0F80
0700
0700
0700
0700
3FE0
1FE0
ENDCHAR
STARTCHAR 00DE
ENCODING 222
SWIDTH 585 0
DWIDTH 13 0
BBX 11 13 1 0
BITMAP
FF00
FF00
1800
1F80
1FC0
19E0
18E0
19E0
1FC0
1F80
1800
FF00
FF00
ENDCHAR
STARTCHAR 00DF
ENCODING 223
SWIDTH 585 0
DWIDTH 13 0
BBX 12 14 0 0
BITMAP
0F80
1FC0
1DE0
38E0
38E0
38E0
3BC0
3BE0
38E0
3870
3870
38E0
FBE0
FBC0
ENDCHAR
STARTCHAR 00E0
ENCODING 224
SWIDTH 585 0
DWIDTH 13 0
BBX 12 16 1 0
BITMAP
0800
1C00
1E00
0F00
0300
0000
3F00
7F80
73C0
01C0
7FC0
FFC0
E1C0
F7C0
7FF0
3EF0
ENDCHAR
STARTCHAR 00E1
ENCODING 225
SWIDTH 585 0
DWIDTH 13 0
BBX 12 16 1 0
BITMAP
0100
0700
0F80
1E00
1800
0000
3F00
7F80
73C0
01C0
7FC0
FFC0
E1C0
F7C0
7FF0
3EF0
ENDCHAR
STARTCHAR 00E2
ENCODING 226
SWIDTH 585 0
DWIDTH 13 0
BBX 12 15 1 0
BITMAP
0E00
1F00
3F80
3180
0000
3F00
7F80
73C0
01C0
7FC0
FFC0
E1C0
F7C0
7FF0
3EF0
ENDCHAR
STARTCHAR 00E3
ENCODING 227
SWIDTH 585 0
DWIDTH 13 0
BBX 12 14 1 0
BITMAP
3DC0
7F80
2700
0000
3F00
7F80
73C0
01C0
7FC0
FFC0
E1C0
F7C0
7FF0
3EF0
ENDCHAR
STARTCHAR 00E4
ENCODING 228
SWIDTH 585 0
DWIDTH 13 0
BBX 12 14 1 0
BITMAP
3980
3980
3980
0000
3F00
7F80
73C0
01C0
7FC0
FFC0
E1C0
F7C0
7FF0
3EF0
ENDCHAR
STARTCHAR 00E5
ENCODING 229
SWIDTH 585 0
DWIDTH 13 0
BBX 12 17 1 0
BITMAP
0E00
1F00
1B00
1B00
1F00
0E00
0000
3F00
7F80
73C0
01C0
7FC0
FFC0
E1C0
F7C0
7FF0
3EF0
ENDCHAR
STARTCHAR 00E6
ENCODING 230
SWIDTH 585 0
DWIDTH 13 0
BBX 13 10 0 0
BITMAP
3DE0
7FF0
67B8
0738
7FF8
7FF8
E700
E7B0
7FF8
3DF0
ENDCHAR
STARTCHAR 00E7
ENCODING 231
SWIDTH 585 0
DWIDTH 13 0
BBX 11 15 1 -5
BITMAP
1EC0
3FC0
7BC0
70C0
E0C0
E000
6000
70C0
3FE0
1F80
0C00
0F00
0380
1F80
1F00
ENDCHAR
STARTCHAR 00E8
ENCODING 232
SWIDTH 585 0
DWIDTH 13 0
BBX 11 16 1 0
BITMAP
0800
1C00
1E00
0F00
0300
0000
1F00
3FC0
79C0
60E0
FFE0
FFE0
6000
79C0
3FE0
1F80
ENDCHAR
STARTCHAR 00E9
ENCODING 233
SWIDTH 585 0
DWIDTH 13 0
BBX 11 16 1 0
BITMAP
0100
0380
0F80
1E00
1800
0000
1F00
3FC0
79C0
60E0
FFE0
FFE0
6000
79C0
3FE0
1F80
ENDCHAR
STARTCHAR 00EA
ENCODING 234
SWIDTH 585 0
DWIDTH 13 0
BBX 11 15 1 0
BITMAP
0600
1F00
3FC0
3080
0000
1F00
3FC0
79C0
60E0
FFE0
FFE0
6000
79C0
3FE0
1F80
ENDCHAR
STARTCHAR 00EB
ENCODING 235
SWIDTH 585 0
DWIDTH 13 0
BBX 11 14 1 0
BITMAP
3980
3980
3980
0000
1F00
3FC0
79C0
60E0
FFE0
FFE0
6000
79C0
3FE0
1F80
ENDCHAR
STARTCHAR 00EC
ENCODING 236
SWIDTH 585 0
DWIDTH 13 0
BBX 10 16 2 0
BITMAP
2000
7000
7800
3C00
0C00
0000
FC00
FC00
1C00
1C00
1C00
1C00
1C00
1C00
FFC0
FFC0
ENDCHAR
STARTCHAR 00ED
ENCODING 237
SWIDTH 585 0
DWIDTH 13 0
BBX 10 16 2 0
BITMAP
0200
0E00
1F00
3C00
3000
0000
FC00
FC00
1C00
1C00
1C00
1C00
1C00
1C00
FFC0
FFC0
ENDCHAR
STARTCHAR 00EE
ENCODING 238
SWIDTH 585 0
DWIDTH 13 0
BBX 10 15 2 0
BITMAP
1C00
3E00
7F00
6300
0000
FC00
FC00
1C00
1C00
1C00
1C00
1C00
1C00
FFC0
FFC0
ENDCHAR
STARTCHAR 00EF
ENCODING 239
SWIDTH 585 0
DWIDTH 13 0
BBX 10 14 2 0
BITMAP
7300
7300
7300
0000
FC00
FC00
1C00
1C00
1C00
1C00
1C00
1C00
FFC0
FFC0
ENDCHAR
STARTCHAR 00F0
ENCODING 240
SWIDTH 585 0
DWIDTH 13 0
BBX 11 15 1 0
BITMAP
0800
1D80
1F80
1F00
1B80
01C0
3FC0
7FE0
71E0
E0E0
E0E0
E0E0
7BC0
3FC0
1F00
ENDCHAR
STARTCHAR 00F1
ENCODING 241
SWIDTH 585 0
DWIDTH 13 0
BBX 12 14 1 0
BITMAP
3DC0
7F80
2700
0000
F780
FFC0
7DC0
78C0
70C0
70C0
70C0
70C0
F9F0
F9F0
ENDCHAR
STARTCHAR 00F2
ENCODING 242
SWIDTH 585 0
DWIDTH 13 0
BBX 11 16 1 0
BITMAP
1000
3800
3E00
0F00
0300
0000
1F00
3FC0
7BC0
E0E0
E0E0
E0E0
E0E0
7BC0
3FC0
1F00
ENDCHAR
STARTCHAR 00F3
ENCODING 243
SWIDTH 585 0
DWIDTH 13 0
BBX 11 16 1 0
BITMAP
0100
0380
0780
1E00
1800
0000
1F00
3FC0
7BC0
E0E0
E0E0
E0E0
E0E0
7BC0
3FC0
1F00
ENDCHAR
STARTCHAR 00F4
ENCODING 244
SWIDTH 585 0
DWIDTH 13 0
BBX 11 15 1 0
BITMAP
0E00
1F00
3F80
3180
0000
1F00
3FC0
7BC0
E0E0
E0E0
E0E0
E0E0
7BC0
3FC0
1F00
ENDCHAR
STARTCHAR 00F5
ENCODING 245
SWIDTH 585 0
DWIDTH 13 0
BBX 11 14 1 0
BITMAP
3DC0
7F80
2700
0000
1F00
3FC0
7BC0
E0E0
E0E0
E0E0
E0E0
7BC0
3FC0
1F00
ENDCHAR
STARTCHAR 00F6
ENCODING 246
SWIDTH 585 0
DWIDTH 13 0
BBX 11 14 1 0
BITMAP
3980
3980
3980
0000
1F00
3FC0
7BC0
E0E0
E0E0
E0E0
E0E0
7BC0
3FC0
1F00
ENDCHAR
STARTCHAR 00F7
ENCODING 247
SWIDTH 585 0
DWIDTH 13 0
BBX 9 10 2 1
BITMAP
1C00
1C00
0000
0000
FF80
FF80
0000
0000
1C00
1C00
ENDCHAR
STARTCHAR 00F8
ENCODING 248
SWIDTH 585 0
DWIDTH 13 0
BBX 11 11 1 0
BITMAP
0060
1F60
3FE0
7BC0
E3E0
E7E0
ECE0
F8E0
7BC0
7FC0
DF00
ENDCHAR
STARTCHAR 00F9
ENCODING 249
SWIDTH 585 0
DWIDTH 13 0
BBX 12 16 1 0
BITMAP
1000
3800
3E00
0F00
0300
0000
F3C0
F3C0
71C0
71C0
71C0
71C0
71C0
73C0
7EF0
3CF0
ENDCHAR
STARTCHAR 00FA
ENCODING 250
SWIDTH 585 0
DWIDTH 13 0
BBX 12 16 1 0
BITMAP
0100
0380
0780
1E00
0800
0000
F3C0
F3C0
71C0
71C0
71C0
71C0
71C0
73C0
7EF0
3CF0
ENDCHAR
STARTCHAR 00FB
ENCODING 251
SWIDTH 585 0
DWIDTH 13 0
BBX 12 15 1 0
BITMAP
0E00
1F00
3F80
3180
0000
F3C0
F3C0
71C0
71C0
71C0
71C0
71C0
73C0
7EF0
3CF0
ENDCHAR
STARTCHAR 00FC
ENCODING 252
SWIDTH 585 0
DWIDTH 13 0
BBX 12 14 1 0
BITMAP
3380
3380
3380
0000
F3C0
F3C0
71C0
71C0
71C0
71C0
71C0
73C0
7EF0
3CF0
ENDCHAR
STARTCHAR 00FD
ENCODING 253
SWIDTH 585 0
DWIDTH 13 0
BBX 13 20 0 -4
BITMAP
0080
01C0
03C0
0F00
0400
0000
FDF8
FDF8
3860
38E0
1CC0
1DC0
0F80
0780
0700
0700
0E00
1E00
7C00
7800
ENDCHAR
STARTCHAR 00FE
ENCODING 254
SWIDTH 585 0
DWIDTH 13 0
BBX 12 18 0 -4
BITMAP
F800
F800
3800
3800
3BC0
3FE0
3CF0
3870
3870
3870
3870
3CF0
3FE0
3BC0
3800
3800
FE00
FE00
ENDCHAR
STARTCHAR 00FF
ENCODING 255
SWIDTH 585 0
DWIDTH 13 0
BBX 13 18 0 -4
BITMAP
1CC0
1CC0
1CC0
0000
FDF8
FDF8
3860
38E0
1CC0
1DC0
0F80
0780
0700
0700
0E00
1E00
7C00
7800
ENDCHAR
STARTCHAR 0100
ENCODING 256
SWIDTH 585 0
DWIDTH 13 0
BBX 13 16 0 0
BITMAP
3FC0
1FC0
0000
3F00
3F80
0F80
0D80
1DC0
1DC0
18C0
3FE0
3FE0
3860
7070
FDF8
FDF8
ENDCHAR
STARTCHAR 0101
ENCODING 257
SWIDTH 585 0
DWIDTH 13 0
BBX 12 13 1 0
BITMAP
3F80
3F80
0000
3F00
7F80
73C0
01C0
7FC0
FFC0
E1C0
F7C0
7FF0
3EF0
ENDCHAR
STARTCHAR 0102
ENCODING 258
SWIDTH 585 0
DWIDTH 13 0
BBX 13 18 0 0
BITMAP
1080
19C0
1FC0
0F80
0000
3F00
3F80
0F80
0D80
1DC0
1DC0
18C0
3FE0
3FE0
3860
7070
FDF8
FDF8
ENDCHAR
STARTCHAR 0103
ENCODING 259
SWIDTH 585 0
DWIDTH 13 0
BBX 12 15 1 0
BITMAP
2080
3980
3F80
1F00
0000
3F00
7F80
73C0
01C0
7FC0
FFC0
E1C0
F7C0
7FF0
3EF0
ENDCHAR
STARTCHAR 0104
ENCODING 260
SWIDTH 585 0
DWIDTH 13 0
BBX 13 18 0 -5
BITMAP
3F00
3F80
0F80
0D80
1DC0
1DC0
18C0
3FE0
3FE0
3860
7070
FDF8
FDF8
0060
00C0
01C8
01F8
00F0
ENDCHAR
STARTCHAR 0105
ENCODING 261
SWIDTH 585 0
DWIDTH 13 0
BBX 12 15 1 -5
BITMAP
3F00
7F80
73C0
01C0
7FC0
FFC0
E1C0
F7C0
7FF0
3C70
01C0
0180
0390
03F0
01E0
ENDCHAR
STARTCHAR 0106
ENCODING 262
SWIDTH 585 0
DWIDTH 13 0
BBX 11 19 1 0
BITMAP
0100
0380
0780
0F00
0C00
0000
1F60
3FE0
79E0
70E0
E0E0
E000
E000
E000
E000
7020
79E0
3FE0
1F80
ENDCHAR
STARTCHAR 0107
ENCODING 263
SWIDTH 585 0
DWIDTH 13 0
BBX 11 16 1 0
BITMAP
0100
0380
0780
1E00
0800
0000
1EC0
3FC0
7BC0
70C0
E0C0
E000
7000
79C0
3FE0
1F80
ENDCHAR
STARTCHAR 0108
ENCODING 264
SWIDTH 585 0
DWIDTH 13 0
BBX 11 18 1 0
BITMAP
0600
0F00
3FC0
30C0
0000
1F60
3FE0
79E0
70E0
E0E0
E000
E000
E000
E000
7020
79E0
3FE0
1F80
ENDCHAR
STARTCHAR 0109
ENCODING 265
SWIDTH 585 0
DWIDTH 13 0
BBX 11 15 1 0
BITMAP
0600
1F00
3FC0
3080
0000
1EC0
3FC0
7BC0
70C0
E0C0
E000
7000
79C0
3FE0
1F80
ENDCHAR
STARTCHAR 010A
ENCODING 266
SWIDTH 585 0
DWIDTH 13 0
BBX 11 17 1 0
BITMAP
0600
0600
0600
0000
1F60
3FE0
79E0
70E0
E0E0
E000
E000
E000
E000
7020
79E0
3FE0
1F80
ENDCHAR
STARTCHAR 010B
ENCODING 267
SWIDTH 585 0
DWIDTH 13 0
BBX 11 14 1 0
BITMAP
0E00
0E00
0E00
0000
1EC0
3FC0
7BC0
70C0
E0C0
E000
7000
79C0
3FE0
1F80
ENDCHAR
STARTCHAR 010C
ENCODING 268
SWIDTH 585 0
DWIDTH 13 0
BBX 11 18 1 0
BITMAP
30C0
3FC0
0F00
0600
0000
1F60
3FE0
79E0
70E0
E0E0
E000
E000
E000
E000
7020
79E0
3FE0
1F80
ENDCHAR
STARTCHAR 010D
ENCODING 269
SWIDTH 585 0
DWIDTH 13 0
BBX 11 15 1 0
BITMAP
3080
3FC0
1F00
0600
0000
1EC0
3FC0
7BC0
70C0
E0C0
E000
7000
79C0
3FE0
1F80
ENDCHAR
STARTCHAR 010E
ENCODING 270
SWIDTH 585 0
DWIDTH 13 0
BBX 11 18 1 0
BITMAP
2180
3F80
1F00
0C00
0000
FF00
FFC0
73C0
70E0
70E0
70E0
7060
70E0
70E0
70E0
73C0
FFC0
FF00
ENDCHAR
STARTCHAR 010F
ENCODING 271
SWIDTH 585 0
DWIDTH 13 0
BBX 14 14 1 0
BITMAP
0F9C
0F98
03B8
03B8
3FB0
7F80
F780
E380
E380
E380
E380
F780
7FE0
3DC0
ENDCHAR
STARTCHAR 0110
ENCODING 272
SWIDTH 585 0
DWIDTH 13 0
BBX 11 13 1 0
BITMAP
FF00
FFC0
73C0
70E0
70E0
70E0
FE60
FEE0
70E0
70E0
73C0
FFC0
FF00
ENDCHAR
STARTCHAR 0111
ENCODING 273
SWIDTH 585 0
DWIDTH 13 0
BBX 12 14 1 0
BITMAP
01C0
0FF0
0FF0
01C0
01C0
1FC0
7FC0
73C0
E1C0
E1C0
E1C0
73C0
7FF0
1EF0
ENDCHAR
STARTCHAR 0112
ENCODING 274
SWIDTH 585 0
DWIDTH 13 0
BBX 11 16 1 0
BITMAP
3F80
3F80
0000
FFE0
FFE0
70E0
70E0
70E0
7000
7E00
7E00
7060
70E0
70E0
FFE0
FFE0
ENDCHAR
STARTCHAR 0113
ENCODING 275
SWIDTH 585 0
DWIDTH 13 0
BBX 11 13 1 0
BITMAP
3F80
3F80
0000
1F00
3FC0
79C0
60E0
FFE0
FFE0
6000
79C0
3FE0
1F80
ENDCHAR
STARTCHAR 0114
ENCODING 276
SWIDTH 585 0
DWIDTH 13 0
BBX 11 18 1 0
BITMAP
2080
3980
3F80
1F00
0000
FFE0
FFE0
70E0
70E0
70E0
7000
7E00
7E00
7060
70E0
70E0
FFE0
FFE0
ENDCHAR
STARTCHAR 0115
ENCODING 277
SWIDTH 585 0
DWIDTH 13 0
BBX 11 15 1 0
BITMAP
10C0
3980
3F80
0F00
0000
1F00
3FC0
79C0
60E0
FFE0
FFE0
6000
79C0
3FE0
1F80
ENDCHAR
STARTCHAR 0116
ENCODING 278
SWIDTH 585 0
DWIDTH 13 0
BBX 11 17 1 0
BITMAP
0E00
0E00
0E00
0000
FFE0
FFE0
70E0
70E0
70E0
7000
7E00
7E00
7060
70E0
70E0
FFE0
FFE0
ENDCHAR
STARTCHAR 0117
ENCODING 279
SWIDTH 585 0
DWIDTH 13 0
BBX 11 14 1 0
BITMAP
0E00
0E00
0E00
0000
1F00
3FC0
79C0
60E0
FFE0
FFE0
6000
79C0
3FE0
1F80
ENDCHAR
STARTCHAR 0118
ENCODING 280
SWIDTH 585 0
DWIDTH 13 0
BBX 11 18 1 -5
BITMAP
FFE0
FFE0
70E0
70E0
70E0
7000
7E00
7E00
70E0
70E0
70E0
FFE0
FFE0
0180
0300
03A0
03E0
01E0
ENDCHAR
STARTCHAR 0119
ENCODING 281
SWIDTH 585 0
DWIDTH 13 0
BBX 11 15 1 -5
BITMAP
1F00
3FC0
79C0
60E0
FFE0
FFE0
6000
79C0
3FE0
1FC0
0300
0700
0740
07C0
03C0
ENDCHAR
STARTCHAR 011A
ENCODING 282
SWIDTH 585 0
DWIDTH 13 0
BBX 11 18 1 0
BITMAP
3180
3F80
1F00
0E00
0000
FFE0
FFE0
70E0
70E0
70E0
7000
7E00
7E00
7060
70E0
70E0
FFE0
FFE0
ENDCHAR
STARTCHAR 011B
ENCODING 283
SWIDTH 585 0
DWIDTH 13 0
BBX 11 15 1 0
BITMAP
3080
3FC0
1F00
0600
0000
1F00
3FC0
79C0
60E0
FFE0
FFE0
6000
79C0
3FE0
1F80
ENDCHAR
STARTCHAR 011C
ENCODING 284
SWIDTH 585 0
DWIDTH 13 0
BBX 12 18 1 0
BITMAP
0600
0F00
3F80
30C0
0000
1EE0
3FE0
79E0
E0E0
E0E0
E000
E7F0
E7F0
E0E0
E0E0
79E0
3FE0
1F80
ENDCHAR
STARTCHAR 011D
ENCODING 285
SWIDTH 585 0
DWIDTH 13 0
BBX 12 19 1 -4
BITMAP
0E00
1F00
3F80
3180
0000
3EF0
7FF0
73C0
E1C0
E0C0
E0C0
E1C0
73C0
7FC0
3FC0
01C0
73C0
7F80
7F00
ENDCHAR
STARTCHAR 011E
ENCODING 286
SWIDTH 585 0
DWIDTH 13 0
BBX 12 18 1 0
BITMAP
10C0
3980
3F80
0F00
0000
1EE0
3FE0
79E0
E0E0
E0E0
E000
E7F0
E7F0
E0E0
E0E0
79E0
3FE0
1F80
ENDCHAR
STARTCHAR 011F
ENCODING 287
SWIDTH 585 0
DWIDTH 13 0
BBX 12 19 1 -4
BITMAP
2080
3980
3F80
1F00
0000
3EF0
7FF0
73C0
E1C0
E0C0
E0C0
E1C0
73C0
7FC0
3FC0
01C0
73C0
7F80
7F00
ENDCHAR
STARTCHAR 0120
ENCODING 288
SWIDTH 585 0
DWIDTH 13 0
BBX 12 17 1 0
BITMAP
0E00
0E00
0E00
0000
1EE0
3FE0
79E0
E0E0
E0E0
E000
E7F0
E7F0
E0E0
E0E0
79E0
3FE0
1F80
ENDCHAR
STARTCHAR 0121
ENCODING 289
SWIDTH 585 0
DWIDTH 13 0
BBX 12 18 1 -4
BITMAP
0E00
0E00
0E00
0000
3EF0
7FF0
73C0
E1C0
E0C0
E0C0
E1C0
73C0
7FC0
3FC0
01C0
73C0
7F80
7F00
ENDCHAR
STARTCHAR 0122
ENCODING 290
SWIDTH 585 0
DWIDTH 13 0
BBX 12 19 1 -6
BITMAP
1EE0
3FE0
79E0
E0E0
E0E0
E000
E7F0
E7F0
E0E0
E0E0
79E0
3FE0
1F80
0000
0000
0E00
0E00
0C00
0C00
ENDCHAR
STARTCHAR 0123
ENCODING 291
SWIDTH 585 0
DWIDTH 13 0
BBX 12 20 1 -4
BITMAP
0700
0600
0600
0E00
0000
0000
3EF0
7FF0
73C0
E1C0
E0C0
E0C0
E1C0
73C0
7FC0
3FC0
01C0
73C0
7F80
7F00
ENDCHAR
STARTCHAR 0124
ENCODING 292
SWIDTH 585 0
DWIDTH 13 0
BBX 12 18 1 0
BITMAP
0E00
1F00
3F80
3180
0000
FBF0
FBF0
70C0
70C0
70C0
70C0
7FC0
7FC0
70C0
70C0
70C0
FBF0
FBF0
ENDCHAR
STARTCHAR 0125
ENCODING 293
SWIDTH 585 0
DWIDTH 13 0
BBX 13 19 0 0
BITMAP
0700
0F80
1FC0
18C0
0000
F800
F800
3800
3800
3BC0
3FE0
3EE0
3CE0
38E0
38E0
38E0
38E0
7DF8
7DF8
ENDCHAR
STARTCHAR 0126
ENCODING 294
SWIDTH 585 0
DWIDTH 13 0
BBX 13 13 0 0
BITMAP
7DF8
3860
3860
FFF8
3860
3860
3FE0
3FE0
3860
3860
3860
7DF8
7DF8
ENDCHAR
STARTCHAR 0127
ENCODING 295
SWIDTH 585 0
DWIDTH 13 0
BBX 13 14 0 0
BITMAP
3800
FF00
FF00
3800
3800
3BC0
3FE0
3EE0
3C60
3860
3860
3860
7DF8
7DF8
ENDCHAR
STARTCHAR 0128
ENCODING 296
SWIDTH 585 0
DWIDTH 13 0
BBX 9 17 2 0
BITMAP
7B80
FF00
4E00
0000
FF80
FF80
1C00
1C00
1C00
1C00
1C00
1C00
1C00
1C00
1C00
FF80
FF80
ENDCHAR
STARTCHAR 0129
ENCODING 297
SWIDTH 585 0
DWIDTH 13 0
BBX 10 14 2 0
BITMAP
7B00
FF00
CE00
0000
FC00
FC00
1C00
1C00
1C00
1C00
1C00
1C00
FFC0
FFC0
ENDCHAR
STARTCHAR 012A
ENCODING 298
SWIDTH 585 0
DWIDTH 13 0
BBX 9 16 2 0
BITMAP
7F00
7F00
0000
FF80
FF80
1C00
1C00
1C00
1C00
1C00
1C00
1C00
1C00
1C00
FF80
FF80
ENDCHAR
STARTCHAR 012B
ENCODING 299
SWIDTH 585 0
DWIDTH 13 0
BBX 10 13 2 0
BITMAP
7F00
7F00
0000
FC00
FC00
1C00
1C00
1C00
1C00
1C00
1C00
FFC0
FFC0
ENDCHAR
STARTCHAR 012C
ENCODING 300
SWIDTH 585 0
DWIDTH 13 0
BBX 9 18 2 0
BITMAP
4100
7300
7F00
3E00
0000
FF80
FF80
1C00
1C00
1C00
1C00
1C00
1C00
1C00
1C00
1C00
FF80
FF80
ENDCHAR
STARTCHAR 012D
ENCODING 301
SWIDTH 585 0
DWIDTH 13 0
BBX 10 15 2 0
BITMAP
4100
6700
7F00
3E00
0000
FC00
FC00
1C00
1C00
1C00
1C00
1C00
1C00
FFC0
FFC0
ENDCHAR
STARTCHAR 012E
ENCODING 302
SWIDTH 585 0
DWIDTH 13 0
BBX 9 18 2 -5
BITMAP
FF80
FF80
1C00
1C00
1C00
1C00
1C00
1C00
1C00
1C00
1C00
FF80
FF80
1800
3000
7200
3E00
3E00
ENDCHAR
STARTCHAR 012F
ENCODING 303
SWIDTH 585 0
DWIDTH 13 0
BBX 10 20 2 -5
BITMAP
0800
1C00
1C00
0800
0000
FC00
FC00
1C00
1C00
1C00
1C00
1C00
1C00
FFC0
FFC0
1800
3000
3A00
3E00
3E00
ENDCHAR
STARTCHAR 0130
ENCODING 304
SWIDTH 585 0
DWIDTH 13 0
BBX 9 17 2 0
BITMAP
1C00
1C00
1C00
0000
FF80
FF80
1C00
1C00
1C00
1C00
1C00
1C00
1C00
1C00
1C00
FF80
FF80
ENDCHAR
STARTCHAR 0131
ENCODING 305
SWIDTH 585 0
DWIDTH 13 0
BBX 10 10 2 0
BITMAP
FC00
FC00
1C00
1C00
1C00
1C00
1C00
1C00
FFC0
FFC0
ENDCHAR
STARTCHAR 0132
ENCODING 306
SWIDTH 585 0
DWIDTH 13 0
BBX 13 13 0 0
BITMAP
F9F8
F9F8
7030
7030
7030
7030
7030
7230
7730
7730
7770
FFF0
FBE0
ENDCHAR
STARTCHAR 0133
ENCODING 307
SWIDTH 585 0
DWIDTH 13 0
BBX 12 19 0 -4
BITMAP
1020
3870
3870
1020
0000
79F0
F9F0
3870
3870
3870
3870
3870
3870
FE70
FE70
0070
0670
07E0
07C0
ENDCHAR
STARTCHAR 0134
ENCODING 308
SWIDTH 585 0
DWIDTH 13 0
BBX 12 18 1 0
BITMAP
0300
07C0
1FE0
0860
0000
3FF0
3FF0
0380
0380
0380
0380
0380
E380
E380
E380
E780
FF00
3E00
ENDCHAR
STARTCHAR 0135
ENCODING 309
SWIDTH 585 0
DWIDTH 13 0
BBX 10 19 2 -4
BITMAP
0600
1F00
3FC0
3080
0000
FF00
FF00
0700
0700
0700
0700
0700
0700
0700
0700
0700
EF00
FE00
7C00
ENDCHAR
STARTCHAR 0136
ENCODING 310
SWIDTH 585 0
DWIDTH 13 0
BBX 12 19 1 -6
BITMAP
FBF0
FBF0
71E0
73C0
7700
7E00
7F00
7F80
71C0
71C0
70E0
FCF0
FC70
0000
0000
0E00
0E00
0C00
0C00
ENDCHAR
STARTCHAR 0137
ENCODING 311
SWIDTH 585 0
DWIDTH 13 0
BBX 12 20 1 -6
BITMAP
F000
F000
7000
7000
73E0
73E0
71C0
7780
7F00
7F80
7380
71C0
FDF0
FCF0
0000
0000
0E00
0E00
0C00
0C00
ENDCHAR
STARTCHAR 0139
ENCODING 313
SWIDTH 585 0
DWIDTH 13 0
BBX 11 19 1 0
BITMAP
0400
0E00
1E00
7800
6000
0000
FF00
FF00
3800
3800
3800
3800
3800
38E0
38E0
38E0
38E0
FFE0
FFE0
ENDCHAR
STARTCHAR 013A
ENCODING 314
SWIDTH 585 0
DWIDTH 13 0
BBX 10 20 2 0
BITMAP
0200
0700
1F00
3C00
3000
0000
FC00
FC00
1C00
1C00
1C00
1C00
1C00
1C00
1C00
1C00
1C00
1C00
FFC0
FFC0
ENDCHAR
STARTCHAR 013B
ENCODING 315
SWIDTH 585 0
DWIDTH 13 0
BBX 11 19 1 -6
BITMAP
FF00
FF00
3800
3800
3800
3800
3800
38E0
38E0
38E0
38E0
FFE0
FFE0
0000
0000
0E00
0E00
0C00
0C00
ENDCHAR
STARTCHAR 013C
ENCODING 316
SWIDTH 585 0
DWIDTH 13 0
BBX 10 20 2 -6
BITMAP
FC00
FC00
1C00
1C00
1C00
1C00
1C00
1C00
1C00
1C00
1C00
1C00
FFC0
FFC0
0000
0000
1C00
1C00
1800
1800
ENDCHAR
STARTCHAR 013D
ENCODING 317
SWIDTH 585 0
DWIDTH 13 0
BBX 12 13 1 0
BITMAP
FF70
FF70
3860
38E0
38C0
3800
3800
38E0
38E0
38E0
38E0
FFE0
FFE0
ENDCHAR
STARTCHAR 013E
ENCODING 318
SWIDTH 585 0
DWIDTH 13 0
BBX 12 14 1 0
BITMAP
7E70
7E70
0E60
0EE0
0EC0
0E00
0E00
0E00
0E00
0E00
0E00
0E00
FFC0
FFC0
ENDCHAR
STARTCHAR 013F
ENCODING 319
SWIDTH 585 0
DWIDTH 13 0
BBX 11 13 1 0
BITMAP
FF00
FF00
3800
3B80
3BC0
3BC0
3B80
3800
38E0
38E0
38E0
FFE0
FFE0
ENDCHAR
STARTCHAR 0140
ENCODING 320
SWIDTH 585 0
DWIDTH 13 0
BBX 11 14 1 0
BITMAP
7E00
7E00
0E00
0E00
0E00
0E60
0E60
0E60
0E00
0E00
0E00
0E00
FFC0
FFC0
ENDCHAR
STARTCHAR 0141
ENCODING 321
SWIDTH 585 0
DWIDTH 13 0
BBX 12 13 0 0
BITMAP
7F80
7F80
1C00
1D00
1F80
1F00
3C20
7C70
FC70
5C70
1C70
7FF0
7FF0
ENDCHAR
STARTCHAR 0142
ENCODING 322
SWIDTH 585 0
DWIDTH 13 0
BBX 10 14 2 0
BITMAP
FC00
FC00
1C00
1C00
1D80
1F80
1F00
3C00
FC00
5C00
1C00
1C00
FFC0
FFC0
ENDCHAR
STARTCHAR 0143
ENCODING 323
SWIDTH 585 0
DWIDTH 13 0
BBX 12 19 1 0
BITMAP
0100
0380
0780
1E00
0800
0000
F1F0
F3F0
78E0
7CE0
7CE0
6EE0
66E0
67E0
63E0
63E0
61E0
F8E0
F8E0
ENDCHAR
STARTCHAR 0144
ENCODING 324
SWIDTH 585 0
DWIDTH 13 0
BBX 12 16 1 0
BITMAP
0100
0380
0780
1E00
0800
0000
F780
FFC0
7DC0
78C0
70C0
70C0
70C0
70C0
F9F0
F9F0
ENDCHAR
STARTCHAR 0145
ENCODING 325
SWIDTH 585 0
DWIDTH 13 0
BBX 12 19 1 -6
BITMAP
F1F0
F3F0
78E0
7CE0
7CE0
6EE0
66E0
67E0
63E0
63E0
61E0
F8E0
F8E0
0000
0000
0E00
0E00
0C00
0C00
ENDCHAR
STARTCHAR 0146
ENCODING 326
SWIDTH 585 0
DWIDTH 13 0
BBX 12 16 1 -6
BITMAP
F780
FFC0
7DC0
78C0
70C0
70C0
70C0
70C0
F9F0
F9F0
0000
0000
0E00
0E00
0C00
0C00
ENDCHAR
STARTCHAR 0147
ENCODING 327
SWIDTH 585 0
DWIDTH 13 0
BBX 12 18 1 0
BITMAP
3180
3F80
1F00
0E00
0000
F1F0
F3F0
78E0
7CE0
7CE0
6EE0
66E0
67E0
63E0
63E0
61E0
F8E0
F8E0
ENDCHAR
STARTCHAR 0148
ENCODING 328
SWIDTH 585 0
DWIDTH 13 0
BBX 12 15 1 0
BITMAP
3180
3F80
1F00
0E00
0000
F780
FFC0
7DC0
78C0
70C0
70C0
70C0
70C0
F9F0
F9F0
ENDCHAR
STARTCHAR 014A
ENCODING 330
SWIDTH 585 0
DWIDTH 13 0
BBX 12 17 1 -4
BITMAP
F1F0
F3F0
78E0
7CE0
7CE0
6EE0
66E0
67E0
63E0
63E0
61E0
F8E0
F8E0
00E0
0DC0
0FC0
0F80
ENDCHAR
STARTCHAR 014B
ENCODING 331
SWIDTH 585 0
DWIDTH 13 0
BBX 11 14 1 -4
BITMAP
F380
F7C0
3DE0
38E0
38E0
30E0
30E0
30E0
FCE0
F8E0
00E0
05E0
0FC0
0F80
ENDCHAR
STARTCHAR 014C
ENCODING 332
SWIDTH 585 0
DWIDTH 13 0
BBX 12 16 1 0
BITMAP
3F80
3F80
0000
1F00
3FC0
7BC0
E0E0
E0E0
E060
E070
E060
E0E0
E0E0
7BC0
3FC0
1F00
ENDCHAR
STARTCHAR 014D
ENCODING 333
SWIDTH 585 0
DWIDTH 13 0
BBX 11 13 1 0
BITMAP
3F80
3F80
0000
1F00
3FC0
7BC0
E0E0
E0E0
E0E0
E0E0
7BC0
3FC0
1F00
ENDCHAR
STARTCHAR 014E
ENCODING 334
SWIDTH 585 0
DWIDTH 13 0
BBX 12 18 1 0
BITMAP
2080
3980
3F80
1F00
0000
1F00
3FC0
7BC0
E0E0
E0E0
E060
E070
E060
E0E0
E0E0
7BC0
3FC0
1F00
ENDCHAR
STARTCHAR 014F
ENCODING 335
SWIDTH 585 0
DWIDTH 13 0
BBX 11 15 1 0
BITMAP
2080
3980
3F80
1F00
0000
1F00
3FC0
7BC0
E0E0
E0E0
E0E0
E0E0
7BC0
3FC0
1F00
ENDCHAR
STARTCHAR 0150
ENCODING 336
SWIDTH 585 0
DWIDTH 13 0
BBX 12 18 1 0
BITMAP
0E60
1CE0
19C0
3180
0000
1F00
3FC0
7BC0
E0E0
E0E0
E060
E070
E060
E0E0
E0E0
7BC0
3FC0
1F00
ENDCHAR
STARTCHAR 0151
ENCODING 337
SWIDTH 585 0
DWIDTH 13 0
BBX 11 15 1 0
BITMAP
0E60
1CE0
19C0
3180
0000
1F00
3FC0
7BC0
E0E0
E0E0
E0E0
E0E0
7BC0
3FC0
1F00
ENDCHAR
STARTCHAR 0152
ENCODING 338
SWIDTH 585 0
DWIDTH 13 0
BBX 12 13 1 0
BITMAP
1FE0
7FE0
7660
E660
C600
C780
C780
C600
C670
E670
7670
7FF0
1FF0
ENDCHAR
STARTCHAR 0153
ENCODING 339
SWIDTH 585 0
DWIDTH 13 0
BBX 13 10 0 0
BITMAP
3DE0
7FF0
77B0
E738
E7F8
E7F8
E700
77B0
7FF8
3DF0
ENDCHAR
STARTCHAR 0154
ENCODING 340
SWIDTH 585 0
DWIDTH 13 0
BBX 12 19 1 0
BITMAP
0100
0380
0780
1E00
1800
0000
FF80
FFC0
71C0
70E0
70E0
71C0
7FC0
7F80
7380
71C0
71E0
FCF0
FC70
ENDCHAR
STARTCHAR 0155
ENCODING 341
SWIDTH 585 0
DWIDTH 13 0
BBX 11 16 1 0
BITMAP
0080
0180
07C0
0F00
0C00
0000
79E0
7BE0
1F60
1C00
1C00
1800
1800
1800
FF80
FF80
ENDCHAR
STARTCHAR 0156
ENCODING 342
SWIDTH 585 0
DWIDTH 13 0
BBX 12 19 1 -6
BITMAP
FF80
FFC0
71C0
70E0
70E0
71C0
7FC0
7F80
7380
71C0
71E0
FCF0
FC70
0000
0000
0E00
0E00
0C00
0C00
ENDCHAR
STARTCHAR 0157
ENCODING 343
SWIDTH 585 0
DWIDTH 13 0
BBX 11 16 1 -6
BITMAP
79E0
7BE0
1F60
1C00
1C00
1800
1800
1800
FF80
FF80
0000
0000
1C00
1C00
1800
1800
ENDCHAR
STARTCHAR 0158
ENCODING 344
SWIDTH 585 0
DWIDTH 13 0
BBX 12 18 1 0
BITMAP
2180
3F80
1F00
0C00
0000
FF80
FFC0
71C0
70E0
70E0
71C0
7FC0
7F80
7380
71C0
71E0
FCF0
FC70
ENDCHAR
STARTCHAR 0159
ENCODING 345
SWIDTH 585 0
DWIDTH 13 0
BBX 11 15 1 0
BITMAP
30C0
3F80
0F00
0600
0000
79E0
7BE0
1F60
1C00
1C00
1800
1800
1800
FF80
FF80
ENDCHAR
STARTCHAR 015A
ENCODING 346
SWIDTH 585 0
DWIDTH 13 0
BBX 10 19 2 0
BITMAP
0200
0700
0F00
3C00
3000
0000
3D80
FF80
E780
C180
E000
FE00
7F80
0F80
C1C0
C1C0
F380
FF80
DF00
ENDCHAR
STARTCHAR 015B
ENCODING 347
SWIDTH 585 0
DWIDTH 13 0
BBX 10 16 2 0
BITMAP
0200
0700
0F00
3C00
3000
0000
7D80
FF80
E780
E180
FF00
3F80
C1C0
F380
FF80
DF00
ENDCHAR
STARTCHAR 015C
ENCODING 348
SWIDTH 585 0
DWIDTH 13 0
BBX 10 18 2 0
BITMAP
1C00
3E00
7F00
6300
0000
3D80
FF80
E780
C180
E000
FE00
7F80
0F80
C1C0
C1C0
F380
FF80
DF00
ENDCHAR
STARTCHAR 015D
ENCODING 349
SWIDTH 585 0
DWIDTH 13 0
BBX 10 15 2 0
BITMAP
1C00
3E00
7F00
6300
0000
7D80
FF80
E780
E180
FF00
3F80
C1C0
F380
FF80
DF00
ENDCHAR
STARTCHAR 015E
ENCODING 350
SWIDTH 585 0
DWIDTH 13 0
BBX 10 18 2 -5
BITMAP
3D80
FF80
E780
C180
E000
FE00
7F80
1F80
C3C0
C1C0
E3C0
FF80
DF00
0C00
0F00
0300
3F00
1E00
ENDCHAR
STARTCHAR 015F
ENCODING 351
SWIDTH 585 0
DWIDTH 13 0
BBX 10 15 2 -5
BITMAP
7D80
FF80
E780
E180
FF00
3F80
C180
F3C0
FF80
DF00
0C00
0F00
0300
3F00
3E00
ENDCHAR
STARTCHAR 0160
ENCODING 352
SWIDTH 585 0
DWIDTH 13 0
BBX 10 18 2 0
BITMAP
6300
7700
3E00
1C00
0000
3D80
FF80
E780
C180
E000
FE00
7F80
0F80
C1C0
C1C0
F380
FF80
DF00
ENDCHAR
STARTCHAR 0161
ENCODING 353
SWIDTH 585 0
DWIDTH 13 0
BBX 10 15 2 0
BITMAP
6300
7700
3E00
1C00
0000
7D80
FF80
E780
E180
FF00
3F80
C1C0
F380
FF80
DF00
ENDCHAR
STARTCHAR 0162
ENCODING 354
SWIDTH 585 0
DWIDTH 13 0
BBX 11 18 1 -5
BITMAP
FFE0
FFE0
CE60
CE60
CE60
CE60
0E00
0E00
0E00
0E00
0E00
7FC0
7FC0
0600
0700
0380
1F80
1F00
ENDCHAR
STARTCHAR 0163
ENCODING 355
SWIDTH 585 0
DWIDTH 13 0
BBX 11 18 1 -5
BITMAP
1800
1800
1800
1800
FFC0
FFC0
1800
1800
1800
1C00
1CE0
1FE0
0F80
0600
0780
0180
1F80
0F00
ENDCHAR
STARTCHAR 0164
ENCODING 356
SWIDTH 585 0
DWIDTH 13 0
BBX 11 18 1 0
BITMAP
3180
3F80
1F00
0E00
0000
FFE0
FFE0
CE60
CE60
CE60
CE60
0E00
0E00
0E00
0E00
0E00
7FC0
7FC0
ENDCHAR
STARTCHAR 0165
ENCODING 357
SWIDTH 585 0
DWIDTH 13 0
BBX 11 15 1 0
BITMAP
00E0
01C0
19C0
1980
1800
1800
FFC0
FFC0
1800
1800
1800
1C00
1CE0
1FE0
0F80
ENDCHAR
STARTCHAR 0166
ENCODING 358
SWIDTH 585 0
DWIDTH 13 0
BBX 11 13 1 0
BITMAP
FFE0
FFE0
CE60
CE60
CE60
CE60
0E00
3F80
3F80
0E00
0E00
7FC0
7FC0
ENDCHAR
STARTCHAR 0167
ENCODING 359
SWIDTH 585 0
DWIDTH 13 0
BBX 11 13 1 0
BITMAP
1800
1800
1800
1800
FFC0
FFC0
1800
7F00
7F00
1800
1CE0
1FE0
0F80
ENDCHAR
STARTCHAR 0168
ENCODING 360
SWIDTH 585 0
DWIDTH 13 0
BBX 12 17 1 0
BITMAP
3DC0
7F80
2700
0000
FBF0
FBF0
60C0
60C0
60C0
60C0
60C0
60C0
60C0
70C0
7BC0
3F80
1F00
ENDCHAR
STARTCHAR 0169
ENCODING 361
SWIDTH 585 0
DWIDTH 13 0
BBX 12 14 1 0
BITMAP
3D80
7F80
6700
0000
F3C0
F3C0
71C0
71C0
71C0
71C0
71C0
73C0
7EF0
3CF0
ENDCHAR
STARTCHAR 016A
ENCODING 362
SWIDTH 585 0
DWIDTH 13 0
BBX 12 16 1 0
BITMAP
3F80
3F80
0000
FBF0
FBF0
60C0
60C0
60C0
60C0
60C0
60C0
60C0
70C0
7BC0
3F80
1F00
ENDCHAR
STARTCHAR 016B
ENCODING 363
SWIDTH 585 0
DWIDTH 13 0
BBX 12 13 1 0
BITMAP
3F80
3F80
0000
F3C0
F3C0
71C0
71C0
71C0
71C0
71C0
73C0
7EF0
3CF0
ENDCHAR
STARTCHAR 016C
ENCODING 364
SWIDTH 585 0
DWIDTH 13 0
BBX 12 18 1 0
BITMAP
2080
3980
3F80
1F00
0000
FBF0
FBF0
60C0
60C0
60C0
60C0
60C0
60C0
60C0
70C0
7BC0
3F80
1F00
ENDCHAR
STARTCHAR 016D
ENCODING 365
SWIDTH 585 0
DWIDTH 13 0
BBX 12 15 1 0
BITMAP
2100
3380
3F80
1F00
0000
F3C0
F3C0
71C0
71C0
71C0
71C0
71C0
73C0
7EF0
3CF0
ENDCHAR
STARTCHAR 016E
ENCODING 366
SWIDTH 585 0
DWIDTH 13 0
BBX 12 20 1 0
BITMAP
0E00
1F00
1B00
1B00
1F00
0E00
0000
FBF0
FBF0
60C0
60C0
60C0
60C0
60C0
60C0
60C0
70C0
7BC0
3F80
1F00
ENDCHAR
STARTCHAR 016F
ENCODING 367
SWIDTH 585 0
DWIDTH 13 0
BBX 12 17 1 0
BITMAP
0E00
1F00
3B00
3B00
1F00
0E00
0000
F3C0
F3C0
71C0
71C0
71C0
71C0
71C0
73C0
7EF0
3CF0
ENDCHAR
STARTCHAR 0170
ENCODING 368
SWIDTH 585 0
DWIDTH 13 0
BBX 12 18 1 0
BITMAP
0E60
1CE0
19C0
3180
0000
FBF0
FBF0
60C0
60C0
60C0
60C0
60C0
60C0
60C0
70C0
7BC0
3F80
1F00
ENDCHAR
STARTCHAR 0171
ENCODING 369
SWIDTH 585 0
DWIDTH 13 0
BBX 12 15 1 0
BITMAP
0CE0
1CE0
3980
3300
0000
F3C0
F3C0
71C0
71C0
71C0
71C0
71C0
73C0
7EF0
3CF0
ENDCHAR
STARTCHAR 0172
ENCODING 370
SWIDTH 585 0
DWIDTH 13 0
BBX 12 18 1 -5
BITMAP
FBF0
FBF0
60C0
60C0
60C0
60C0
60C0
60C0
60C0
70C0
7BC0
3F80
1F00
0600
0C00
1C80
0F80
0F80
ENDCHAR
STARTCHAR 0173
ENCODING 371
SWIDTH 585 0
DWIDTH 13 0
BBX 12 15 1 -5
BITMAP
F3C0
F3C0
71C0
71C0
71C0
71C0
71C0
73C0
7EF0
3CF0
01C0
0180
0390
03F0
01E0
ENDCHAR
STARTCHAR 0174
ENCODING 372
SWIDTH 585 0
DWIDTH 13 0
BBX 13 18 0 0
BITMAP
0300
0F80
1FE0
1840
0000
F8F8
F8F8
6030
7030
7730
7730
77F0
3DF0
3DE0
3DE0
38E0
38E0
38E0
ENDCHAR
STARTCHAR 0175
ENCODING 373
SWIDTH 585 0
DWIDTH 13 0
BBX 13 15 0 0
BITMAP
0700
0F80
1FC0
18C0
0000
F878
F8F8
6230
6730
7770
3FF0
3DE0
3DE0
38E0
38E0
ENDCHAR
STARTCHAR 0176
ENCODING 374
SWIDTH 585 0
DWIDTH 13 0
BBX 13 18 0 0
BITMAP
0300
0F80
1FE0
1840
0000
FDF8
FDF8
3870
38E0
1DC0
0FC0
0F80
0700
0700
0700
0700
3FE0
1FE0
ENDCHAR
STARTCHAR 0177
ENCODING 375
SWIDTH 585 0
DWIDTH 13 0
BBX 13 19 0 -4
BITMAP
0300
0F80
1FE0
1840
0000
FDF8
FDF8
3860
38E0
1CC0
1DC0
0F80
0780
0700
0700
0E00
1E00
7C00
7800
ENDCHAR
STARTCHAR 0178
ENCODING 376
SWIDTH 585 0
DWIDTH 13 0
BBX 13 17 0 0
BITMAP
1CC0
1CC0
1CC0
0000
FDF8
FDF8
3870
38E0
1DC0
0FC0
0F80
0700
0700
0700
0700
3FE0
1FE0
ENDCHAR
STARTCHAR 0179
ENCODING 377
SWIDTH 585 0
DWIDTH 13 0
BBX 11 19 1 0
BITMAP
0100
0380
0780
1E00
0800
0000
7FE0
7FE0
61C0
6380
6780
0700
0E00
1E00
3CE0
38E0
70E0
FFE0
7FE0
ENDCHAR
STARTCHAR 017A
ENCODING 378
SWIDTH 585 0
DWIDTH 13 0
BBX 11 16 1 0
BITMAP
0100
0380
0780
1E00
0800
0000
7FE0
7FE0
63C0
6780
0F00
1E00
3CE0
78E0
FFE0
7FE0
ENDCHAR
STARTCHAR 017B
ENCODING 379
SWIDTH 585 0
DWIDTH 13 0
BBX 11 17 1 0
BITMAP
0E00
0E00
0E00
0000
7FE0
7FE0
61C0
6380
6780
0700
0E00
1E00
3CE0
38E0
70E0
FFE0
7FE0
ENDCHAR
STARTCHAR 017C
ENCODING 380
SWIDTH 585 0
DWIDTH 13 0
BBX 11 14 1 0
BITMAP
0E00
0E00
0E00
0000
7FE0
7FE0
63C0
6780
0F00
1E00
3CE0
78E0
FFE0
7FE0
ENDCHAR
STARTCHAR 017D
ENCODING 381
SWIDTH 585 0
DWIDTH 13 0
BBX 11 18 1 0
BITMAP
3080
3FC0
1F00
0600
0000
7FE0
7FE0
61C0
6380
6780
0700
0E00
1E00
3CE0
38E0
70E0
FFE0
7FE0
ENDCHAR
STARTCHAR 017E
ENCODING 382
SWIDTH 585 0
DWIDTH 13 0
BBX 11 15 1 0
BITMAP
3080
3FC0
1F00
0600
0000
7FE0
7FE0
63C0
6780
0F00
1E00
3CE0
78E0
FFE0
7FE0
ENDCHAR
STARTCHAR 0192
ENCODING 402
SWIDTH 585 0
DWIDTH 13 0
BBX 12 17 0 -3
BITMAP
01F0
03F0
0390
0700
0700
3FE0
3FE0
0700
0700
0700
0600
0600
0600
0E00
CE00
FC00
F800
ENDCHAR
STARTCHAR 0218
ENCODING 536
SWIDTH 585 0
DWIDTH 13 0
BBX 10 19 2 -6
BITMAP
3D80
FF80
E780
C180
E000
FE00
7F80
0F80
C1C0
C1C0
F380
FF80
DF00
0000
0000
1C00
1C00
1800
1800
ENDCHAR
STARTCHAR 0219
ENCODING 537
SWIDTH 585 0
DWIDTH 13 0
BBX 10 16 2 -6
BITMAP
7D80
FF80
E780
E180
FF00
3F80
C1C0
F380
FF80
DF00
0000
0000
1C00
1C00
1800
1800
ENDCHAR
STARTCHAR 021A
ENCODING 538
SWIDTH 585 0
DWIDTH 13 0
BBX 11 19 1 -6
BITMAP
FFE0
FFE0
CE60
CE60
CE60
CE60
0E00
0E00
0E00
0E00
0E00
7FC0
7FC0
0000
0000
0E00
0C00
0C00
1C00
ENDCHAR
STARTCHAR 021B
ENCODING 539
SWIDTH 585 0
DWIDTH 13 0
BBX 11 19 1 -6
BITMAP
1800
1800
1800
1800
FFC0
FFC0
1800
1800
1800
1C00
1CE0
1FE0
0F80
0000
0000
0700
0E00
0E00
0C00
ENDCHAR
STARTCHAR 0237
ENCODING 567
SWIDTH 585 0
DWIDTH 13 0
BBX 8 14 2 -4
BITMAP
FF
FF
07
07
07
07
07
07
07
07
07
EF
FE
7C
ENDCHAR
STARTCHAR 02C6
ENCODING 710
SWIDTH 585 0
DWIDTH 13 0
BBX 7 4 3 11
BITMAP
38
7C
FE
C6
ENDCHAR
STARTCHAR 02C7
ENCODING 711
SWIDTH 585 0
DWIDTH 13 0
BBX 7 4 3 11
BITMAP
C6
FE
7C
38
ENDCHAR
STARTCHAR 02D8
ENCODING 728
SWIDTH 585 0
DWIDTH 13 0
BBX 7 4 3 11
BITMAP
82
E6
FE
7C
ENDCHAR
STARTCHAR 02D9
ENCODING 729
SWIDTH 585 0
DWIDTH 13 0
BBX 3 3 5 11
BITMAP
E0
E0
E0
ENDCHAR
STARTCHAR 02DA
ENCODING 730
SWIDTH 585 0
DWIDTH 13 0
BBX 5 6 4 11
BITMAP
70
F8
D8
D8
F8
70
ENDCHAR
STARTCHAR 02DB
ENCODING 731
SWIDTH 585 0
DWIDTH 13 0
BBX 5 6 4 -5
BITMAP
30
60
E0
C0
F8
78
ENDCHAR
STARTCHAR 02DC
ENCODING 732
SWIDTH 585 0
DWIDTH 13 0
BBX 9 3 2 11
BITMAP
7B80
FF00
4E00
ENDCHAR
STARTCHAR 02DD
ENCODING 733
SWIDTH 585 0
DWIDTH 13 0
BBX 9 4 3 11
BITMAP
3980
7380
6700
C600
ENDCHAR
STARTCHAR 0326
ENCODING 806
SWIDTH 0 0
DWIDTH 0 0
BBX 4 4 -9 -6
BITMAP
70
60
60
E0
ENDCHAR
STARTCHAR 0394
ENCODING 916
SWIDTH 585 0
DWIDTH 13 0
BBX 10 13 2 0
BITMAP
1C00
1C00
3E00
3E00
3600
7700
7700
7300
6380
E380
E180
FFC0
FFC0
ENDCHAR
STARTCHAR 03A9
ENCODING 937
SWIDTH 585 0
DWIDTH 13 0
BBX 13 13 0 0
BITMAP
0F80
3FE0
3DF0
7070
7070
7030
7038
7030
7070
38E0
7DF0
FDF8
7DF8
ENDCHAR
STARTCHAR 03BC
ENCODING 956
SWIDTH 585 0
DWIDTH 13 0
BBX 9 14 2 -4
BITMAP
E180
E180
E180
E180
E180
E380
E380
FF80
FF80
F980
E000
E000
E000
E000
ENDCHAR
STARTCHAR 03C0
ENCODING 960
SWIDTH 585 0
DWIDTH 13 0
BBX 11 10 1 0
BITMAP
FFE0
FFE0
71C0
71C0
71C0
71C0
71C0
71C0
71C0
71C0
ENDCHAR
STARTCHAR 1E80
ENCODING 7808
SWIDTH 585 0
DWIDTH 13 0
BBX 13 19 0 0
BITMAP
0800
1C00
1E00
0780
0100
0000
F8F8
F8F8
6030
7030
7730
7730
77F0
3DF0
3DE0
3DE0
38E0
38E0
38E0
ENDCHAR
STARTCHAR 1E81
ENCODING 7809
SWIDTH 585 0
DWIDTH 13 0
BBX 13 16 0 0
BITMAP
0800
1C00
1E00
0780
0100
0000
F878
F8F8
6230
6730
7770
3FF0
3DE0
3DE0
38E0
38E0
ENDCHAR
STARTCHAR 1E82
ENCODING 7810
SWIDTH 585 0
DWIDTH 13 0
BBX 13 19 0 0
BITMAP
0080
01C0
03C0
0F80
0600
0000
F8F8
F8F8
6030
7030
7730
7730
77F0
3DF0
3DE0
3DE0
38E0
38E0
38E0
ENDCHAR
STARTCHAR 1E83
ENCODING 7811
SWIDTH 585 0
DWIDTH 13 0
BBX 13 16 0 0
BITMAP
0080
01C0
03C0
0F80
0600
0000
F878
F8F8
6230
6730
7770
3FF0
3DE0
3DE0
38E0
38E0
ENDCHAR
STARTCHAR 1E84
ENCODING 7812
SWIDTH 585 0
DWIDTH 13 0
BBX 13 17 0 0
BITMAP
1CC0
1CC0
1CC0
0000
F8F8
F8F8
6030
7030
7730
7730
77F0
3DF0
3DE0
3DE0
38E0
38E0
38E0
ENDCHAR
STARTCHAR 1E85
ENCODING 7813
SWIDTH 585 0
DWIDTH 13 0
BBX 13 14 0 0
BITMAP
1CC0
1CC0
1CC0
0000
F878
F8F8
6230
6730
7770
3FF0
3DE0
3DE0
38E0
38E0
ENDCHAR
STARTCHAR 1EF2
ENCODING 7922
SWIDTH 585 0
DWIDTH 13 0
BBX 13 19 0 0
BITMAP
0800
1C00
1E00
0780
0180
0000
FDF8
FDF8
3870
38E0
1DC0
0FC0
0F80
0700
0700
0700
0700
3FE0
1FE0
ENDCHAR
STARTCHAR 1EF3
ENCODING 7923
SWIDTH 585 0
DWIDTH 13 0
BBX 13 20 0 -4
BITMAP
0800
1C00
1E00
0780
0180
0000
FDF8
FDF8
3860
38E0
1CC0
1DC0
0F80
0780
0700
0700
0E00
1E00
7C00
7800
ENDCHAR
STARTCHAR 2011
ENCODING 8209
SWIDTH 585 0
DWIDTH 13 0
BBX 9 2 2 5
BITMAP
FF80
FF80
ENDCHAR
STARTCHAR 2013
ENCODING 8211
SWIDTH 585 0
DWIDTH 13 0
BBX 9 2 2 5
BITMAP
FF80
FF80
ENDCHAR
STARTCHAR 2014
ENCODING 8212
SWIDTH 585 0
DWIDTH 13 0
BBX 14 2 0 5
BITMAP
FFFC
FFF8
ENDCHAR
STARTCHAR 2018
ENCODING 8216
SWIDTH 585 0
DWIDTH 13 0
BBX 5 6 4 8
BITMAP
38
30
30
70
70
F0
ENDCHAR
STARTCHAR 2019
ENCODING 8217
SWIDTH 585 0
DWIDTH 13 0
BBX 5 6 4 8
BITMAP
78
70
70
70
60
E0
ENDCHAR
STARTCHAR 201A
ENCODING 8218
SWIDTH 585 0
DWIDTH 13 0
BBX 5 6 4 -2
BITMAP
78
70
70
70
60
E0
ENDCHAR
STARTCHAR 201C
ENCODING 8220
SWIDTH 585 0
DWIDTH 13 0
BBX 11 6 1 8
BITMAP
38E0
30C0
70C0
71C0
71C0
F3C0
ENDCHAR
STARTCHAR 201D
ENCODING 8221
SWIDTH 585 0
DWIDTH 13 0
BBX 11 6 1 8
BITMAP
79E0
71C0
71C0
71C0
6180
E380
ENDCHAR
STARTCHAR 201E
ENCODING 8222
SWIDTH 585 0
DWIDTH 13 0
BBX 11 6 1 -2
BITMAP
79E0
71C0
71C0
71C0
6180
E380
ENDCHAR
STARTCHAR 2020
ENCODING 8224
SWIDTH 585 0
DWIDTH 13 0
BBX 8 10 3 3
BITMAP
38
38
38
FE
FF
38
38
38
38
38
ENDCHAR
STARTCHAR 2021
ENCODING 8225
SWIDTH 585 0
DWIDTH 13 0
BBX 8 11 3 2
BITMAP
38
38
FE
FF
38
38
38
FF
FE
38
38
ENDCHAR
STARTCHAR 2022
ENCODING 8226
SWIDTH 585 0
DWIDTH 13 0
BBX 5 6 4 3
BITMAP
F8
F8
F8
F8
F8
F8
ENDCHAR
STARTCHAR 2026
ENCODING 8230
SWIDTH 585 0
DWIDTH 13 0
BBX 11 3 1 0
BITMAP
EE60
EE60
EE60
ENDCHAR
STARTCHAR 2030
ENCODING 8240
SWIDTH 585 0
DWIDTH 13 0
BBX 16 13 1 0
BITMAP
7000
F820
D860
D9E0
FB80
7700
0E00
1DDC
3BFE
7376
E377
43FE
01DC
ENDCHAR
STARTCHAR 2032
ENCODING 8242
SWIDTH 585 0
DWIDTH 13 0
BBX 6 5 4 8
BITMAP
38
3C
70
60
C0
ENDCHAR
STARTCHAR 2033
ENCODING 8243
SWIDTH 585 0
DWIDTH 13 0
BBX 10 5 2 8
BITMAP
3980
7BC0
7380
E700
CE00
ENDCHAR
STARTCHAR 2039
ENCODING 8249
SWIDTH 585 0
DWIDTH 13 0
BBX 5 9 4 1
BITMAP
10
38
70
E0
E0
E0
70
38
10
ENDCHAR
STARTCHAR 203A
ENCODING 8250
SWIDTH 585 0
DWIDTH 13 0
BBX 5 9 4 1
BITMAP
60
E0
70
38
18
38
70
E0
60
ENDCHAR
STARTCHAR 2044
ENCODING 8260
SWIDTH 585 0
DWIDTH 13 0
BBX 11 7 1 2
BITMAP
0060
00E0
0380
0E00
3800
F000
C000
ENDCHAR
STARTCHAR 2074
ENCODING 8308
SWIDTH 585 0
DWIDTH 13 0
BBX 9 9 2 5
BITMAP
0600
0E00
1E00
3600
7600
FF00
7F80
0600
0600
ENDCHAR
STARTCHAR 20A3
ENCODING 8355
SWIDTH 585 0
DWIDTH 13 0
BBX 12 13 0 0
BITMAP
7FF0
7FF0
1830
1830
1800
1F80
1F80
1800
1800
FFC0
1800
7F00
7F00
ENDCHAR
STARTCHAR 20A9
ENCODING 8361
SWIDTH 585 0
DWIDTH 13 0
BBX 14 13 0 0
BITMAP
F8F8
F8F8
6030
7230
7730
FFFC
FFF8
3FF0
3DE0
3DE0
3CE0
38E0
38E0
ENDCHAR
STARTCHAR 20AC
ENCODING 8364
SWIDTH 585 0
DWIDTH 13 0
BBX 11 13 1 0
BITMAP
0F60
3FE0
39E0
70E0
FEE0
FE00
7000
FE00
FE00
7000
3DE0
3FE0
0F80
ENDCHAR
STARTCHAR 2122
ENCODING 8482
SWIDTH 585 0
DWIDTH 13 0
BBX 13 6 1 8
BITMAP
FB10
FB38
23B8
23F8
22D8
2258
ENDCHAR
STARTCHAR 2202
ENCODING 8706
SWIDTH 585 0
DWIDTH 13 0
BBX 9 13 2 0
BITMAP
3E00
3F00
0380
0380
0180
3D80
FF80
E780
C380
C300
E700
FE00
7C00
ENDCHAR
STARTCHAR 220F
ENCODING 8719
SWIDTH 585 0
DWIDTH 13 0
BBX 9 13 2 0
BITMAP
FF80
FF80
FF80
C180
C180
C180
C180
C180
C180
C180
C180
C180
C180
ENDCHAR
STARTCHAR 2211
ENCODING 8721
SWIDTH 585 0
DWIDTH 13 0
BBX 9 13 2 0
BITMAP
FF80
FF80
7F80
7000
3800
1C00
0E00
1C00
3800
7000
FF80
FF80
FF80
ENDCHAR
STARTCHAR 2212
ENCODING 8722
SWIDTH 585 0
DWIDTH 13 0
BBX 9 2 2 5
BITMAP
FF80
FF80
ENDCHAR
STARTCHAR 2215
ENCODING 8725
SWIDTH 585 0
DWIDTH 13 0
BBX 9 22 2 -4
BITMAP
0100
0180
0380
0380
0300
0700
0700
0600
0E00
0E00
1C00
1C00
1800
3800
3800
3000
7000
7000
E000
E000
E000
C000
ENDCHAR
STARTCHAR 221A
ENCODING 8730
SWIDTH 585 0
DWIDTH 13 0
BBX 11 13 1 0
BITMAP
00E0
00E0
00E0
01C0
01C0
01C0
F380
FB80
3B80
1F00
1F00
1F00
0E00
ENDCHAR
STARTCHAR 221E
ENCODING 8734
SWIDTH 585 0
DWIDTH 13 0
BBX 13 7 0 3
BITMAP
38F0
7DF0
C798
C718
C798
7DF0
38F0
ENDCHAR
STARTCHAR 222B
ENCODING 8747
SWIDTH 585 0
DWIDTH 13 0
BBX 13 20 0 -4
BITMAP
01F0
03F8
0718
0700
0700
0700
0700
0700
0700
0700
0700
0700
0700
0700
0700
0700
0700
C700
FE00
7C00
ENDCHAR
STARTCHAR 2248
ENCODING 8776
SWIDTH 585 0
DWIDTH 13 0
BBX 11 8 1 2
BITMAP
3800
7EE0
EFC0
0380
3800
7EE0
EFC0
0380
ENDCHAR
STARTCHAR 2260
ENCODING 8800
SWIDTH 585 0
DWIDTH 13 0
BBX 9 12 2 1
BITMAP
0200
0300
0700
FF80
FF80
0C00
1C00
1800
FF80
FF80
7000
6000
ENDCHAR
STARTCHAR 2264
ENCODING 8804
SWIDTH 585 0
DWIDTH 13 0
BBX 9 13 2 0
BITMAP
0080
0380
0F80
7F00
F800
F800
7F00
0F80
0380
0080
0000
FF80
FF80
ENDCHAR
STARTCHAR 2265
ENCODING 8805
SWIDTH 585 0
DWIDTH 13 0
BBX 9 13 2 0
BITMAP
8000
E000
FC00
3F00
0F80
0F80
3F00
FC00
E000
8000
0000
FF80
FF80
ENDCHAR
STARTCHAR 25CA
ENCODING 9674
SWIDTH 585 0
DWIDTH 13 0
BBX 9 13 2 0
BITMAP
1C00
1E00
3E00
3700
7700
E380
E180
E380
7700
3700
3E00
1E00
1C00
ENDCHAR
STARTCHAR FB01
ENCODING 64257
SWIDTH 585 0
DWIDTH 13 0
BBX 13 14 0 0
BITMAP
0F80
3FC0
3980
3800
FFE0
FFE0
38E0
38E0
38E0
38E0
38E0
38E0
3BF8
3BF8
ENDCHAR
STARTCHAR FB02
ENCODING 64258
SWIDTH 585 0
DWIDTH 13 0
BBX 13 14 0 0
BITMAP
0F80
1FE0
38E0
38E0
FEE0
FEE0
38E0
38E0
38E0
38E0
38E0
38E0
3BF8
3BF8
ENDCHAR
ENDFONT
